<?xml version="1.0" encoding="utf-8"?>
<!-- Generator: Adobe Illustrator 27.3.1, SVG Export Plug-In . SVG Version: 6.00 Build 0)  -->
<svg version="1.1" id="Layer_1" xmlns="http://www.w3.org/2000/svg" xmlns:xlink="http://www.w3.org/1999/xlink" x="0px"
	y="0px" viewBox="0 0 695.2 452.8" style="enable-background:new 0 0 695.2 452.8;" xml:space="preserve">

	<defs>
		<g id="boilerFlame">
			<path style="fill:#E17A2D;" d="M186.141,168.802c18.63-48.445,15.042-121.667,15.042-121.667s49.541,20.759,83.744,77.761
					c32.149,53.578,1.777,133.398,1.777,133.398c23.685-23.693,32.464-47.382,33.268-75.827c26.608,42.473,47.165,91.146,47.165,140.398
					c0,60.938-55.412,110.285-123.837,110.318c-68.396-0.037-123.837-49.38-123.837-110.318
					C119.463,263.555,164.173,225.931,186.141,168.802z" />
			<g style="opacity:0.8;">
				<path style="fill:#F4E028;" d="M210.455,272.583c10.222-29.384,8.258-73.791,8.258-73.791s98.12,74.674,91.131,167.227
						c-2.791,36.856-30.424,66.888-68.01,66.91c-37.556-0.022-68.003-29.949-68.003-66.91
						C173.835,330.049,198.388,307.232,210.455,272.583z" />
			</g>
			<g style="opacity:0.8;">
				<path style="fill:#FFFFFF;" d="M222.017,330.072c6.481-18.619,5.231-46.753,5.231-46.753s62.169,47.318,57.743,105.963
						c-1.77,23.349-19.278,42.372-43.09,42.39c-23.794-0.019-43.09-18.978-43.09-42.39C198.815,366.483,214.38,352.025,222.017,330.072z
						" />
			</g>
		</g>
	</defs>
	<defs>
		<g id="emergencyIcon">
			<rect style="fill:#606060;" width="2" height="10" transform="translate(8, 5)" />
			<path style="fill:#FFC107;cursor:pointer" transform="scale(0.035)"
				d="M479 447.77 268.43 56.64a8 8 0 0 0-14.09 0L43.73 447.77a8 8 0 0 0 7.05 11.79H472a8 8 0 0 0 7-11.79zm-197.62-36.29h-40v-40h40zm-4-63.92h-32l-6-160h44z">
			</path>
		</g>
	</defs>
	<defs>
		<g id="fireAlarmIcon">
			<rect fill="none" width="40px" height="40px"></rect>
			<path style="fill:none;"
				d="M20,0.64C9.31,0.64,0.64,9.31,0.64,20S9.31,39.36,20,39.36  s19.36-8.67,19.36-19.36S30.69,0.64,20,0.64z">
			</path>
			<path style="fill:none;"
				d="M24.27,35.07c8.45-2.83,8.97-10.24,5.9-16.31  c-1.62-2.83-0.52-4.57-0.52-4.57s-3.24,0.58-4.57,3.18c-1.85-3.99,2.78-5.61-0.35-12.44  c0,0-1.39,2.49-5.32,4.57s-3.64,6.71-3.64,6.71s-0.75-3.12-4.34-3.64c0,0,0.69,3.12-1.04,5.79  S4.25,32.99,19.64,35.07c0,0-7.12-4.98-3.88-13.48c0,0,0.87,2.02,2.31,2.6c0,0,0.69-3.53,4.28-4.86  c0,0-0.35,4.05,1.45,5.55c0,0,1.85-1.1,2.08-2.78C25.89,22.11,28.73,29.69,24.27,35.07z">
			</path>
			<path
				d="M8.86,4.81c0.13,0,0.26-0.04,0.37-0.12c0.6-0.42,1.22-0.81,1.86-1.16  c0.31-0.17,0.43-0.56,0.26-0.87c-0.17-0.31-0.56-0.43-0.87-0.26c-0.68,0.37-1.35,0.79-1.99,1.23  c-0.29,0.2-0.36,0.6-0.15,0.89C8.46,4.71,8.66,4.81,8.86,4.81z">
			</path>
			<path
				d="M34.14,5.86C30.36,2.08,25.34,0,20,0c-2.4,0-4.75,0.42-6.99,1.26  c-0.33,0.12-0.5,0.49-0.38,0.82c0.12,0.33,0.49,0.5,0.82,0.38c2.09-0.78,4.29-1.17,6.54-1.17  c5,0,9.7,1.95,13.24,5.48c3.54,3.54,5.48,8.24,5.48,13.24s-1.95,9.7-5.48,13.24  c-3.54,3.54-8.24,5.48-13.24,5.48s-9.7-1.95-13.24-5.48c-3.54-3.54-5.48-8.24-5.48-13.24  c0-2.66,0.54-5.22,1.62-7.63c1.04-2.32,2.52-4.38,4.39-6.12c0.26-0.24,0.28-0.64,0.04-0.9  c-0.24-0.26-0.64-0.28-0.9-0.04c-2,1.85-3.58,4.05-4.69,6.54C0.58,14.42,0,17.16,0,20  c0,5.34,2.08,10.36,5.86,14.14S14.66,40,20,40c5.34,0,10.36-2.08,14.14-5.86S40,25.34,40,20  S37.92,9.64,34.14,5.86z">
			</path>
			<path
				d="M19.39,35.7c0.29,0.04,0.57-0.13,0.68-0.4c0.11-0.27,0.01-0.59-0.23-0.76  c-0.02-0.01-1.68-1.19-2.97-3.35c-1.49-2.5-1.86-5.2-1.1-8.04c0.45,0.63,1.09,1.31,1.91,1.64  c0.18,0.07,0.38,0.06,0.54-0.03c0.17-0.09,0.29-0.25,0.32-0.44c0.01-0.03,0.54-2.59,2.99-3.97  c0.02,1.41,0.28,3.84,1.7,5.03c0.21,0.17,0.5,0.2,0.74,0.06c0.06-0.03,0.93-0.56,1.61-1.46  c0.53,2.44,0.99,7.11-1.97,10.68c-0.18,0.22-0.2,0.53-0.03,0.77c0.12,0.18,0.32,0.28,0.53,0.28  c0.07,0,0.14-0.01,0.2-0.03c3.37-1.13,5.73-3.02,7.01-5.61c1.12-2.26,1.34-4.97,0.65-7.86  c-0.08-0.34-0.43-0.55-0.77-0.47c-0.34,0.08-0.55,0.43-0.47,0.77c0.62,2.59,0.43,5.01-0.55,6.99  c-0.87,1.76-2.34,3.16-4.37,4.18c1.09-2.03,1.58-4.47,1.42-7.15c-0.16-2.63-0.87-4.57-0.9-4.65  c-0.1-0.27-0.38-0.44-0.67-0.41c-0.29,0.03-0.52,0.26-0.56,0.55c-0.13,0.91-0.88,1.64-1.37,2.02  c-0.94-1.25-0.97-3.72-0.89-4.66c0.02-0.22-0.08-0.43-0.25-0.56c-0.17-0.13-0.4-0.17-0.61-0.09  c-2.79,1.03-3.97,3.26-4.43,4.49c-0.68-0.57-1.19-1.49-1.35-1.88c-0.1-0.24-0.34-0.39-0.6-0.39  c-0.26,0.01-0.49,0.17-0.58,0.41c-1.76,4.63-0.55,8.26,0.77,10.48c0.53,0.89,1.12,1.63,1.65,2.21  c-3.97-0.9-6.58-2.66-7.76-5.26c-1.71-3.74,0-8.42,1.1-10.1c1.27-1.95,1.35-4.1,1.26-5.31  c2.38,0.75,2.94,2.87,2.97,2.97c0.08,0.32,0.39,0.53,0.72,0.48c0.33-0.05,0.56-0.34,0.54-0.67  c-0-0.04-0.22-4.24,3.31-6.11c2.55-1.35,4.08-2.87,4.87-3.83c1.11,2.99,0.53,4.75-0.02,6.46  c-0.48,1.47-0.97,2.98-0.06,4.95c0.1,0.22,0.32,0.37,0.57,0.37c0.25,0,0.47-0.13,0.58-0.35  c0.71-1.39,2.08-2.14,3.04-2.52c-0.13,0.91-0.03,2.26,0.91,3.92c0.14,0.27,0.27,0.55,0.39,0.83  c0.14,0.32,0.52,0.47,0.84,0.33c0.32-0.14,0.47-0.52,0.33-0.84c-0.13-0.3-0.28-0.61-0.43-0.91  c-0-0.01-0.01-0.02-0.02-0.03c-1.36-2.38-0.59-3.81-0.53-3.91c0.14-0.21,0.14-0.48-0-0.7  c-0.14-0.21-0.4-0.32-0.65-0.27c-0.12,0.02-2.6,0.48-4.24,2.36c-0.13-0.96,0.15-1.82,0.48-2.83  c0.63-1.93,1.41-4.33-0.46-8.42c-0.1-0.22-0.31-0.36-0.55-0.37c-0.24-0.01-0.47,0.12-0.58,0.32  c-0.01,0.02-1.37,2.36-5.06,4.32c-2.45,1.3-3.41,3.47-3.77,5.11c-0.73-0.91-1.92-1.84-3.82-2.11  c-0.21-0.03-0.42,0.04-0.56,0.2c-0.14,0.15-0.2,0.37-0.16,0.57c0.01,0.03,0.61,2.91-0.95,5.3  c-0.97,1.49-3.28,6.77-1.19,11.33C10.08,32.8,13.74,34.94,19.39,35.7z">
			</path>
		</g>
	</defs>

	<defs>
		<g id="securityAlarmIcon">
			<path d="M154,157.558h-7v-36.75c0-24.124-19.638-43.75-43.777-43.75h-3.445C75.638,77.058,56,96.684,56,120.808v36.75h-7
				c-1.933,0-3.5,1.566-3.5,3.5v31.5c0,1.934,1.567,3.5,3.5,3.5h105c1.933,0,3.5-1.566,3.5-3.5v-31.5
				C157.5,159.124,155.933,157.558,154,157.558z M63,120.808c0-20.265,16.499-36.75,36.777-36.75h3.445
				c20.279,0,36.777,16.485,36.777,36.75v36.75H63V120.808z M150.5,189.058h-98v-24.5h7h84h7V189.058z" />
			<path d="M101.5,94.558c-15.439,0-28,12.561-28,28c0,1.934,1.567,3.5,3.5,3.5s3.5-1.566,3.5-3.5c0-11.58,9.42-21,21-21
				c1.933,0,3.5-1.566,3.5-3.5C105,96.124,103.433,94.558,101.5,94.558z" />
			<path d="M101.5,66.558c1.933,0,3.5-1.566,3.5-3.5V10.442c0-1.934-1.567-3.5-3.5-3.5s-3.5,1.566-3.5,3.5v52.616
				C98,64.993,99.567,66.558,101.5,66.558z" />
			<path d="M149.227,84.058c0.896,0,1.791-0.342,2.475-1.025l22.273-22.275c1.367-1.367,1.367-3.582,0-4.949
				c-1.367-1.367-3.582-1.367-4.949,0l-22.273,22.275c-1.367,1.367-1.367,3.582,0,4.949
				C147.436,83.716,148.331,84.058,149.227,84.058z" />
			<path d="M50.026,83.033c0.684,0.684,1.579,1.025,2.474,1.025s1.791-0.342,2.474-1.025c1.367-1.367,1.367-3.582,0-4.949
				L32.701,55.808c-1.367-1.367-3.582-1.367-4.949,0s-1.367,3.582,0,4.949L50.026,83.033z" />
			<path d="M199.5,112.058H161c-1.933,0-3.5,1.566-3.5,3.5c0,1.934,1.567,3.5,3.5,3.5h38.5c1.933,0,3.5-1.566,3.5-3.5
				C203,113.624,201.433,112.058,199.5,112.058z" />
			<path d="M42,112.058H3.5c-1.933,0-3.5,1.566-3.5,3.5c0,1.934,1.567,3.5,3.5,3.5H42c1.933,0,3.5-1.566,3.5-3.5
				C45.5,113.624,43.933,112.058,42,112.058z" />
		</g>
	</defs>

	<defs>
		<g id="carbonMonoxideAlarmIcon">
			<g>
				<path style="fill:none;"
					d="M39.2,20.62c0-3.08-2.29-5.63-5.25-6.04c0.65-0.97,1.03-2.13,1.03-3.39   c0-3.37-2.73-6.1-6.1-6.1c-1.27,0-2.45,0.39-3.42,1.05c-1.12-1.44-2.86-2.37-4.83-2.37   c-2.49,0-4.63,1.49-5.58,3.63c-0.66-0.24-1.37-0.38-2.11-0.38c-3.37,0-6.1,2.73-6.1,6.1   c0,0.82,0.16,1.61,0.46,2.33c-1.54,1.11-2.54,2.91-2.54,4.95c0,3.37,2.73,6.1,6.1,6.1   c0.13,0,0.26-0,0.39-0.01c-0.08,0.39-0.12,0.78-0.12,1.19c0,3.37,2.73,6.1,6.1,6.1   c2.45,0,4.56-1.44,5.53-3.52c1.1,1.58,2.93,2.62,5.01,2.62c3.37,0,6.1-2.73,6.1-6.1   c0-0.04-0-0.08-0-0.12C36.87,26.3,39.2,23.74,39.2,20.62z">
				</path>
				<path style="fill:none;"
					d="M8.08,31.17c0-1.23-1-2.23-2.23-2.23c-0.8,0-1.5,0.42-1.9,1.06   c-0.28-0.13-0.6-0.2-0.93-0.2c-1.23,0-2.23,1-2.23,2.23c0,1.23,1,2.23,2.23,2.23   c0.06,0,0.12-0,0.19-0.01c0.12,1.11,1.07,1.98,2.21,1.98c1.23,0,2.23-1,2.23-2.23   c0-0.42-0.12-0.82-0.32-1.16C7.78,32.43,8.08,31.83,8.08,31.17z">
				</path>
			</g>
			<g transform="translate(0 0)">
				<path style="fill:#000000;"
					d="M17.23,34.59c-3.8,0-6.9-3.09-6.9-6.9c0-0.13,0-0.27,0.01-0.4   c-3.57-0.26-6.39-3.25-6.39-6.88c0-2.01,0.88-3.92,2.39-5.22c-0.21-0.66-0.31-1.35-0.31-2.06   c0-3.8,3.09-6.9,6.9-6.9c0.58,0,1.15,0.07,1.71,0.21c1.22-2.13,3.5-3.47,5.99-3.47   c1.91,0,3.69,0.77,4.99,2.13c1-0.54,2.11-0.82,3.26-0.82c3.8,0,6.9,3.09,6.9,6.9   c0,0.99-0.21,1.96-0.61,2.84C37.98,14.92,40,17.58,40,20.62c0,3.24-2.26,6.02-5.36,6.73   c-0.28,3.54-3.26,6.34-6.88,6.34c-1.85,0-3.61-0.74-4.89-2.04C21.6,33.47,19.49,34.59,17.23,34.59z    M11.24,25.71c0.23,0,0.45,0.1,0.6,0.27c0.16,0.19,0.23,0.44,0.18,0.68c-0.07,0.34-0.1,0.69-0.1,1.04   c0,2.92,2.38,5.3,5.3,5.3c2.05,0,3.94-1.2,4.81-3.06c0.12-0.26,0.37-0.43,0.65-0.46   c0.28-0.02,0.56,0.1,0.72,0.34c0.99,1.43,2.62,2.28,4.36,2.28c2.92,0,5.3-2.38,5.3-5.3   c0-0.03-0-0.07-0-0.1c-0.01-0.41,0.29-0.76,0.7-0.81c2.65-0.33,4.64-2.59,4.64-5.26   c0-2.63-1.96-4.89-4.57-5.25c-0.27-0.04-0.51-0.21-0.62-0.46c-0.11-0.25-0.09-0.54,0.06-0.77   c0.58-0.87,0.89-1.89,0.89-2.94c0-2.92-2.38-5.3-5.3-5.3c-1.07,0-2.1,0.32-2.98,0.91   c-0.35,0.24-0.82,0.16-1.08-0.17c-1.01-1.31-2.54-2.06-4.2-2.06c-2.1,0-4,1.24-4.85,3.16   c-0.17,0.38-0.61,0.57-1,0.43c-0.59-0.22-1.21-0.33-1.84-0.33c-2.92,0-5.3,2.38-5.3,5.3   c0,0.7,0.13,1.38,0.4,2.02c0.14,0.34,0.03,0.73-0.27,0.95c-1.38,1-2.21,2.61-2.21,4.31   c0,2.92,2.38,5.3,5.3,5.3c0.11,0,0.22-0,0.34-0.01C11.21,25.71,11.23,25.71,11.24,25.71z">
				</path>
				<path style="fill:#000000;"
					d="M27.64,31.07c-0.78,0-1.54-0.2-2.22-0.59c-0.38-0.22-0.51-0.71-0.3-1.09   c0.22-0.38,0.71-0.51,1.09-0.3c0.43,0.25,0.92,0.38,1.42,0.38c0.75,0,1.47-0.29,2.01-0.82   c0.32-0.31,0.82-0.3,1.13,0.01c0.31,0.32,0.3,0.82-0.01,1.13C29.92,30.62,28.81,31.07,27.64,31.07z    M31.25,28.05c-0.05,0-0.09-0-0.14-0.01c-0.43-0.08-0.72-0.49-0.64-0.92c0.01-0.06,0.02-0.12,0.03-0.19   c0.05-0.44,0.44-0.75,0.88-0.7c0.44,0.05,0.75,0.44,0.7,0.88c-0.01,0.1-0.02,0.19-0.04,0.29   C31.97,27.78,31.63,28.05,31.25,28.05z">
				</path>
				<g transform="translate(4, 0)">
				<path style="fill:#000000;"
					d="M14.48,14.97c-1,0-1.56,0.53-1.56,1.68v3.79c0,1.15,0.56,1.68,1.59,1.68   c1.33,0,1.45-0.9,1.5-1.47c0.03-0.34,0.3-0.46,0.68-0.46c0.48,0,0.7,0.14,0.7,0.72   c0,1.43-1.19,2.44-2.97,2.44c-1.58,0-2.88-0.79-2.88-2.9v-3.79c0-2.11,1.32-2.9,2.89-2.9   c1.78,0,2.96,0.98,2.96,2.36c0,0.59-0.22,0.72-0.69,0.72c-0.42,0-0.68-0.14-0.69-0.46   C15.97,15.91,15.82,14.97,14.48,14.97z">
				</path>
				<path style="fill:#000000;"
					d="M18.58,20.44v-3.79c0-2.11,1.26-2.9,2.92-2.9   c1.64,0,2.93,0.79,2.93,2.9v3.79c0,2.11-1.29,2.9-2.93,2.9   C19.84,23.35,18.58,22.55,18.58,20.44z M23.04,16.65c0-1.15-0.59-1.68-1.55-1.68   c-0.98,0-1.54,0.53-1.54,1.68v3.79c0,1.15,0.56,1.68,1.54,1.68c0.96,0,1.55-0.53,1.55-1.68V16.65z">
				</path>
				</g>
			</g>
		</g>
	</defs>

	<g transform="matrix(1 0 0 1 13 24)" style="letter-spacing: 1px" data-state="timestamp"
		data-state-eval="if(state.isConnected === false) {element.style.fill = 'red'}">
		<text data-state="timestamp" data-state-format="date"
			style="font-family:'Roboto'; font-size:9px;">{{timestamp}}</text>
		<text data-state="timestamp" data-state-format="time" transform="matrix(1 0 0 1 5 13)"
			style="font-family:'Roboto'; font-size:9px;">{{timestamp}}</text>
	</g>

	<line style="fill:none;stroke:#000000;stroke-miterlimit:10;" x1="173.3" y1="94.1" x2="173.3" y2="128.4" />
	<line style="fill:none;stroke:#000000;stroke-miterlimit:10;" x1="173.3" y1="114.9" x2="120.2" y2="114.9" />
	<line style="fill:none;stroke:#000000;stroke-miterlimit:10;" x1="172.7" y1="210" x2="120.3" y2="210" />
	<line style="fill:none;stroke:#000000;stroke-miterlimit:10;" x1="120.2" y1="114.9" x2="120.3" y2="148.9" />
	<line style="fill:none;stroke:#000000;stroke-miterlimit:10;" x1="120.3" y1="175.6" x2="120.3" y2="209.5" />

	<g data-section="boilerPumps[0]">
		<text transform="matrix(1 0 0 1 99.6896 145.0158)" style="font-family:'Arial'; font-size:10px;">НК1</text>
		<circle style="fill:none;stroke:#000000;stroke-miterlimit:10;" cx="120.3" cy="162.2" r="10.6" />
		<circle style="fill:none;stroke:#000000;stroke-width:0.25;stroke-miterlimit:10;" cx="120.2" cy="162.2"
			r="9.3" />
		<polygon style="stroke:#4D4D4D;stroke-width:0.25;stroke-miterlimit:10;" points="120.3,170.9 116.4,164.3 124.3,164.3
			120.3,170.9 " />

		<path style="fill:none;stroke:#0000FF;stroke-width:2;stroke-miterlimit:10;" d="M130.8,175.6h-21c-1.4,0-2.6-1.2-2.6-2.6v-21.6
				c0-1.4,1.2-2.6,2.6-2.6h21c1.4,0,2.6,1.2,2.6,2.6V173C133.4,174.5,132.2,175.6,130.8,175.6z" />

	</g>

	<g data-section="boiler[0]">
		<text transform="matrix(1 0 0 1 141.5219 125.3774)" style="font-family:'Arial'; font-size:10px;">К1</text>
		<rect x="141.5" y="128.4" style="fill:#FFFFFF;stroke:#FF0000;stroke-miterlimit:10;" width="63.6"
			height="69.3" />
		<path style="fill:#808080;stroke:#000000;stroke-miterlimit:10;" d="M189.3,194.6h-29.5c-2.5,0-4.5-2-4.5-4.5v-19.9
				c0-2.5,2-4.5,4.5-4.5h29.5c2.5,0,4.5,2,4.5,4.5v19.9C193.7,192.6,191.7,194.6,189.3,194.6z" />
	</g>

	<line style="fill:none;stroke:#000000;stroke-miterlimit:10;" x1="95.9" y1="93.7" x2="95.9" y2="234.8" />
	<line style="fill:none;stroke:#000000;stroke-miterlimit:10;" x1="292.7" y1="94" x2="292.7" y2="128.3" />
	<line style="fill:none;stroke:#000000;stroke-miterlimit:10;" x1="292.7" y1="114.8" x2="239.7" y2="114.8" />
	<line style="fill:none;stroke:#000000;stroke-miterlimit:10;" x1="292.1" y1="209.9" x2="239.7" y2="209.9" />
	<line style="fill:none;stroke:#000000;stroke-miterlimit:10;" x1="239.7" y1="114.8" x2="239.7" y2="148.8" />
	<line style="fill:none;stroke:#000000;stroke-miterlimit:10;" x1="239.7" y1="175.5" x2="239.7" y2="209.4" />

	<g data-section="boilerPumps[1]">
		<circle style="fill:#808080;stroke:#000000;stroke-miterlimit:10;" cx="239.7" cy="162.1" r="10.6" />
		<circle style="fill:none;stroke:#000000;stroke-width:0.25;stroke-miterlimit:10;" cx="239.7" cy="162.1"
			r="9.3" />
		<polygon style="stroke:#4D4D4D;stroke-width:0.25;stroke-miterlimit:10;" points="239.8,170.8 235.8,164.2 243.7,164.2
			239.8,170.8 		" />
		<path style="fill:none;stroke:#FF0000;stroke-width:2;stroke-miterlimit:10;" d="M250.2,175.5h-21c-1.4,0-2.6-1.2-2.6-2.6v-21.6
				c0-1.4,1.2-2.6,2.6-2.6h21c1.4,0,2.6,1.2,2.6,2.6v21.6C252.8,174.4,251.7,175.5,250.2,175.5z" />
		<text transform="matrix(1 0 0 1 218.1215 143.9151)" style="font-family:'Arial'; font-size:10px;">НК2</text>
	</g>

	<g data-section="boiler[1]">
		<rect x="261" y="128.3" style="fill:#FFFFFF;stroke:#000000;stroke-miterlimit:10;" width="63.6" height="69.3" />
		<text transform="matrix(1 0 0 1 260.9538 125.2767)" style="font-family:'Arial'; font-size:10px;">К2</text>
		<path style="fill:#808080;stroke:#FF0000;stroke-miterlimit:10;" d="M308.7,194.5h-29.5c-2.5,0-4.5-2-4.5-4.5v-19.9
			c0-2.5,2-4.5,4.5-4.5h29.5c2.5,0,4.5,2,4.5,4.5v19.9C313.2,192.5,311.2,194.5,308.7,194.5z" />
	</g>

	<line style="fill:none;stroke:#000000;stroke-miterlimit:10;" x1="292.3" y1="197.6" x2="292.3" y2="228.1" />
	<line style="fill:none;stroke:#000000;stroke-miterlimit:10;" x1="95.8" y1="94.1" x2="292.7" y2="94.1" />
	<line style="fill:none;stroke:#000000;stroke-miterlimit:10;" x1="172.8" y1="228.2" x2="292.3" y2="228.2" />
	<line style="fill:none;stroke:#000000;stroke-miterlimit:10;" x1="412.3" y1="93.9" x2="412.3" y2="128.2" />
	<line style="fill:none;stroke:#000000;stroke-miterlimit:10;" x1="412.3" y1="114.8" x2="359.2" y2="114.8" />
	<line style="fill:none;stroke:#000000;stroke-miterlimit:10;" x1="411.7" y1="209.9" x2="359.3" y2="209.9" />
	<line style="fill:none;stroke:#000000;stroke-miterlimit:10;" x1="359.2" y1="114.8" x2="359.3" y2="148.7" />
	<line style="fill:none;stroke:#000000;stroke-miterlimit:10;" x1="359.3" y1="175.5" x2="359.3" y2="209.3" />

	<g data-section="boilerPumps[2]">
		<circle style="fill:#808080;stroke:#000000;stroke-miterlimit:10;" cx="359.3" cy="162" r="10.6" />
		<circle style="fill:none;stroke:#000000;stroke-width:0.25;stroke-miterlimit:10;" cx="359.2" cy="162" r="9.3" />
		<polygon style="stroke:#4D4D4D;stroke-width:0.25;stroke-miterlimit:10;" points="359.3,170.7 355.4,164.1 363.3,164.1
			359.3,170.7" />
		<path style="fill:none;stroke:#0000FF;stroke-width:2;stroke-miterlimit:10;" d="M369.8,175.5h-21c-1.4,0-2.6-1.2-2.6-2.6v-21.6
				c0-1.4,1.2-2.6,2.6-2.6h21c1.4,0,2.6,1.2,2.6,2.6v21.6C372.4,174.3,371.2,175.5,369.8,175.5z" />
		<text transform="matrix(1 0 0 1 337.671 143.8647)" style="font-family:'Arial'; font-size:10px;">НК3</text>
	</g>

	<g data-section="boiler[2]">
		<rect x="380.5" y="128.2" style="fill:#FFFFFF;stroke:#000000;stroke-miterlimit:10;" width="63.6"
			height="69.3" />
		<text transform="matrix(1 0 0 1 380.5033 125.2263)" style="font-family:'Arial'; font-size:10px;">К3</text>
		<path style="fill:#808080;stroke:#000000;stroke-miterlimit:10;" d="M428.2,194.5h-29.5c-2.5,0-4.5-2-4.5-4.5v-19.9
			c0-2.5,2-4.5,4.5-4.5h29.5c2.5,0,4.5,2,4.5,4.5V190C432.7,192.5,430.7,194.5,428.2,194.5z" />
	</g>

	<line style="fill:none;stroke:#000000;stroke-miterlimit:10;" x1="411.7" y1="197.5" x2="411.7" y2="228" />
	<line style="fill:none;stroke:#000000;stroke-miterlimit:10;" x1="292.9" y1="94" x2="412.3" y2="94" />
	<line style="fill:none;stroke:#000000;stroke-miterlimit:10;" x1="292.4" y1="228.1" x2="411.8" y2="228.1" />
	<line style="fill:none;stroke:#000000;stroke-miterlimit:10;" x1="532.2" y1="93.8" x2="532.2" y2="128.1" />
	<line style="fill:none;stroke:#000000;stroke-miterlimit:10;" x1="532.2" y1="114.7" x2="479.2" y2="114.7" />
	<line style="fill:none;stroke:#000000;stroke-miterlimit:10;" x1="531.6" y1="209.8" x2="479.2" y2="209.8" />
	<line style="fill:none;stroke:#000000;stroke-miterlimit:10;" x1="479.2" y1="114.7" x2="479.2" y2="148.6" />
	<line style="fill:none;stroke:#000000;stroke-miterlimit:10;" x1="479.2" y1="175.4" x2="479.2" y2="209.2" />

	<g data-section="boilerPumps[3]">
		<text transform="matrix(1 0 0 1 457.6181 143.764)" style="font-family:'Arial'; font-size:10px;">НК4</text>
		<circle style="fill:none;stroke:#000000;stroke-miterlimit:10;" cx="479.2" cy="161.9" r="10.6" />
		<circle style="fill:none;stroke:#000000;stroke-width:0.25;stroke-miterlimit:10;" cx="479.2" cy="161.9"
			r="9.3" />
		<polygon style="stroke:#4D4D4D;stroke-width:0.25;stroke-miterlimit:10;" points="479.3,170.6 475.3,164 483.2,164 479.3,170.6
			" />
		<path style="fill:none;stroke:#0000FF;stroke-width:2;stroke-miterlimit:10;" d="M489.7,175.4h-21c-1.4,0-2.6-1.2-2.6-2.6v-21.6
				c0-1.4,1.2-2.6,2.6-2.6h21c1.4,0,2.6,1.2,2.6,2.6v21.6C492.3,174.2,491.2,175.4,489.7,175.4z" />
	</g>

	<line style="fill:none;stroke:#000000;stroke-miterlimit:10;" x1="531.6" y1="219.4" x2="531.6" y2="227.9" />
	<line style="fill:none;stroke:#000000;stroke-miterlimit:10;" x1="412.8" y1="93.9" x2="532.2" y2="93.9" />
	<line style="fill:none;stroke:#000000;stroke-miterlimit:10;" x1="412.2" y1="228" x2="531.6" y2="228" />

	<g data-section="boiler[3]">
		<text transform="matrix(1 0 0 1 500.4504 125.1256)" style="font-family:'Arial'; font-size:10px;">К4</text>
		<rect x="500.5" y="128.1" style="fill:#FFFFFF;stroke:#000000;stroke-miterlimit:10;" width="63.6"
			height="69.3" />
		<path style="fill:#808080;stroke:#000000;stroke-miterlimit:10;" d="M548.2,194.4h-29.5c-2.5,0-4.5-2-4.5-4.5v-19.9
				c0-2.5,2-4.5,4.5-4.5h29.5c2.5,0,4.5,2,4.5,4.5v19.9C552.7,192.4,550.6,194.4,548.2,194.4z" />

	</g>

	<line style="fill:none;stroke:#000000;stroke-miterlimit:10;" x1="137" y1="307.2" x2="137" y2="324.2" />
	<line style="fill:none;stroke:#000000;stroke-miterlimit:10;" x1="136.7" y1="350.9" x2="136.7" y2="367.8" />

	<g data-section="networkPumps[0]">
		<text transform="matrix(1 0 0 1 112.4372 319.2943)" style="font-family:'Arial'; font-size:10px;">СН1</text>
		<circle style="fill:none;stroke:#000000;stroke-miterlimit:10;" cx="137" cy="337.5" r="10.6" />
		<circle style="fill:none;stroke:#000000;stroke-width:0.25;stroke-miterlimit:10;" cx="137" cy="337.4" r="9.3" />
		<polygon style="stroke:#4D4D4D;stroke-width:0.25;stroke-miterlimit:10;" points="137.1,346.2 133.1,339.5 141,339.5 137.1,346.2
					" />
		<path style="fill:none;stroke:#0000FF;stroke-width:2;stroke-miterlimit:10;" d="M147.6,350.9h-21c-1.4,0-2.6-1.2-2.6-2.6v-21.6
				c0-1.4,1.2-2.6,2.6-2.6h21c1.4,0,2.6,1.2,2.6,2.6v21.6C150.1,349.7,149,350.9,147.6,350.9z" />
	</g>

	<line style="fill:none;stroke:#000000;stroke-miterlimit:10;" x1="172.6" y1="268.1" x2="172.6" y2="324.2" />
	<line style="fill:none;stroke:#000000;stroke-miterlimit:10;" x1="172.3" y1="350.9" x2="172.3" y2="367.8" />

	<g data-section="networkPumps[1]">
		<circle style="fill:#999999;stroke:#000000;stroke-miterlimit:10;" cx="172.6" cy="337.5" r="10.6" />
		<circle style="fill:none;stroke:#000000;stroke-width:0.25;stroke-miterlimit:10;" cx="172.6" cy="337.5"
			r="9.3" />
		<polygon style="stroke:#4D4D4D;stroke-width:0.25;stroke-miterlimit:10;" points="172.7,346.2 168.7,339.6 176.6,339.6
			172.7,346.2 		" />
		<path style="fill:none;stroke:#0000FF;stroke-width:2;stroke-miterlimit:10;" d="M183.2,350.9h-21c-1.4,0-2.6-1.2-2.6-2.6v-21.6
				c0-1.4,1.2-2.6,2.6-2.6h21c1.4,0,2.6,1.2,2.6,2.6v21.6C185.8,349.8,184.6,350.9,183.2,350.9z" />
		<text transform="matrix(1 0 0 1 148.0516 319.3167)" style="font-family:'Arial'; font-size:10px;">СН2</text>
	</g>

	<line style="fill:none;stroke:#000000;stroke-miterlimit:10;" x1="208.3" y1="307.2" x2="208.3" y2="324.2" />
	<line style="fill:none;stroke:#000000;stroke-miterlimit:10;" x1="208" y1="350.9" x2="208" y2="367.8" />

	<g data-section="networkPumps[2]">
		<text transform="matrix(1 0 0 1 183.7291 319.3167)" style="font-family:'Arial'; font-size:10px;">СН3</text>
		<circle style="fill:#999999;stroke:#000000;stroke-miterlimit:10;" cx="208.3" cy="337.5" r="10.6" />
		<circle style="fill:none;stroke:#000000;stroke-width:0.25;stroke-miterlimit:10;" cx="208.3" cy="337.5"
			r="9.3" />
		<polygon style="stroke:#4D4D4D;stroke-width:0.25;stroke-miterlimit:10;" points="208.4,346.2 204.4,339.6 212.3,339.6
			208.4,346.2 		" />
		<path style="fill:none;stroke:#0000FF;stroke-width:2;stroke-miterlimit:10;" d="M218.9,350.9h-21c-1.4,0-2.6-1.2-2.6-2.6v-21.6
				c0-1.4,1.2-2.6,2.6-2.6h21c1.4,0,2.6,1.2,2.6,2.6v21.6C221.4,349.8,220.3,350.9,218.9,350.9z" />
	</g>

	<line style="fill:none;stroke:#000000;stroke-miterlimit:10;" x1="172.6" y1="307.2" x2="137" y2="307.3" />
	<line style="fill:none;stroke:#000000;stroke-miterlimit:10;" x1="208.3" y1="307.2" x2="172.6" y2="307.3" />
	<line style="fill:none;stroke:#000000;stroke-miterlimit:10;" x1="172.3" y1="367.8" x2="136.7" y2="367.9" />
	<line style="fill:none;stroke:#000000;stroke-miterlimit:10;" x1="208" y1="367.8" x2="172.5" y2="367.8" />
	<line style="fill:none;stroke:#000000;stroke-miterlimit:10;" x1="208" y1="367.8" x2="445.3" y2="367.8" />
	<line style="fill:none;stroke:#000000;stroke-miterlimit:10;" x1="532.2" y1="93.8" x2="589.9" y2="93.8" />
	<line style="fill:none;stroke:#000000;stroke-miterlimit:10;" x1="589.9" y1="254.8" x2="589.9" y2="93.8" />
	<line style="fill:none;stroke:#000000;stroke-miterlimit:10;" x1="665" y1="313.5" x2="490.3" y2="313.5" />
	<polygon style="fill:#FF0000;stroke:#FF0000;stroke-width:0.5;stroke-miterlimit:10;" points="682,367.8 671,373.2 671,362.4
	682,367.8 " />
	<polygon style="fill:#0000FF;stroke:#0000FF;stroke-width:0.5;stroke-miterlimit:10;" points="670,313.5 681,308.1 681,318.9
	670,313.5 " />
	<text transform="matrix(1 0 0 1 670.9551 385.3874)" style="font-family:'Arial'; font-size:10px;">Т1</text>
	<text transform="matrix(1 0 0 1 669.9711 330.5885)" style="font-family:'Arial'; font-size:10px;">Т2</text>
	<polygon style="fill:#0071BC;stroke:#0071BC;stroke-width:0.5;stroke-miterlimit:10;" points="671,417.5 682,412.1 682,422.9
	671,417.5 " />
	<text transform="matrix(1 0 0 1 670.9545 437.0123)" style="font-family:'Arial'; font-size:10px;">В1</text>
	<circle style="stroke:#000000;stroke-miterlimit:10;" cx="208" cy="367.8" r="1.3" />
	<circle style="stroke:#000000;stroke-miterlimit:10;" cx="172.3" cy="367.8" r="1.3" />
	<circle style="stroke:#000000;stroke-miterlimit:10;" cx="172.6" cy="307.2" r="1.3" />
	<circle style="stroke:#000000;stroke-miterlimit:10;" cx="173.3" cy="94.1" r="1.3" />
	<circle style="stroke:#000000;stroke-miterlimit:10;" cx="172.7" cy="210" r="1.3" />
	<circle style="stroke:#000000;stroke-miterlimit:10;" cx="173.3" cy="114.9" r="1.3" />
	<circle style="stroke:#000000;stroke-miterlimit:10;" cx="292.3" cy="228" r="1.3" />
	<circle style="stroke:#000000;stroke-miterlimit:10;" cx="292.1" cy="209.9" r="1.3" />
	<circle style="stroke:#000000;stroke-miterlimit:10;" cx="292.7" cy="114.8" r="1.3" />
	<circle style="stroke:#000000;stroke-miterlimit:10;" cx="292.7" cy="93.7" r="1.3" />
	<circle style="stroke:#000000;stroke-miterlimit:10;" cx="411.6" cy="228.1" r="1.3" />
	<circle style="stroke:#000000;stroke-miterlimit:10;" cx="411.6" cy="209.9" r="1.3" />
	<circle style="stroke:#000000;stroke-miterlimit:10;" cx="412.3" cy="114.9" r="1.3" />
	<circle style="stroke:#000000;stroke-miterlimit:10;" cx="412.2" cy="93.8" r="1.3" />
	<circle style="stroke:#000000;stroke-miterlimit:10;" cx="531.6" cy="209.8" r="1.3" />
	<circle style="stroke:#000000;stroke-miterlimit:10;" cx="532.2" cy="114.8" r="1.3" />
	<circle style="stroke:#000000;stroke-miterlimit:10;" cx="532.2" cy="93.7" r="1.3" />
	<g>
		<circle style="fill:none;stroke:#000000;stroke-miterlimit:10;" cx="398" cy="432" r="10.6" />
		<circle style="fill:none;stroke:#000000;stroke-width:0.25;stroke-miterlimit:10;" cx="398" cy="432" r="9.3" />
		<polygon style="stroke:#4D4D4D;stroke-width:0.25;stroke-miterlimit:10;" points="389.2,432.1 395.9,428.1 395.9,436 389.2,432.1
		" />
		<g>
			<path style="fill:none;stroke:#0000FF;stroke-width:2;stroke-miterlimit:10;" d="M384.5,442.6v-21c0-1.4,1.2-2.6,2.6-2.6h21.6
			c1.4,0,2.6,1.2,2.6,2.6v21c0,1.4-1.2,2.6-2.6,2.6h-21.6C385.7,445.2,384.5,444,384.5,442.6z" />
		</g>
	</g>
	<line style="fill:none;stroke:#000000;stroke-miterlimit:10;" x1="349.6" y1="417.4" x2="384.7" y2="417.4" />
	<line style="fill:none;stroke:#000000;stroke-miterlimit:10;" x1="411.4" y1="417.7" x2="665" y2="417.7" />
	<text transform="matrix(1 0 0 1 382.0095 385.1147)" style="font-family:'Arial'; font-size:10px;">ЧРП ПН</text>
	<g>
		<polygon style="fill:#FFFFFF;stroke:#000000;stroke-width:0.25;stroke-miterlimit:10;" points="495.1,373.9 440.1,373.9
		440.1,373.9 440.1,361.6 440.1,361.6 495.1,361.6 495.1,361.6 495.1,373.9 	" />
		<text transform="matrix(1 0 0 1 446.5817 371.4565)" style="font-family:'Arial'; font-size:9px;"></text>
		<text transform="matrix(1 0 0 1 457.709 359.1944)" style="font-family:'Arial'; font-size:10px;">FE1</text>
	</g>
	<line style="fill:none;stroke:#000000;stroke-miterlimit:10;" x1="659.9" y1="367.8" x2="495.1" y2="367.8" />
	<line style="fill:none;stroke:#000000;stroke-miterlimit:10;" x1="432.2" y1="367.7" x2="432.2" y2="357.5" />
	<g>
		<polygon style="fill:#FFFFFF;stroke:#000000;stroke-width:0.25;stroke-miterlimit:10;" points="454.7,357.5 409.7,357.5
		409.7,357.5 409.7,346.3 409.7,346.3 454.7,346.3 454.7,346.3 454.7,357.5 	" />
		<text transform="matrix(1.1813 0 0 1 416.9589 355.042)" style="font-family:'Arial'; font-size:9px;"></text>
		<text transform="matrix(1 0 0 1 419.7805 344.3256)" style="font-family:'Arial'; font-size:10px;">TE1.1</text>
	</g>
	<line style="fill:none;stroke:#000000;stroke-miterlimit:10;" x1="626" y1="367.8" x2="626" y2="357.5" />

	<g>
		<text transform="matrix(1 0 0 1 617.4741 344.3259)" style="font-family:'Arial'; font-size:10px;">TE1</text>
		<polygon style="fill:#FFFFFF;stroke:#000000;stroke-width:0.25;stroke-miterlimit:10;" points="648.5,357.5 603.5,357.5
		603.5,357.5 603.5,346.4 603.5,346.4 648.5,346.4 648.5,346.4 648.5,357.5 	" />
		<text data-state="tempOutNet" transform="matrix(1 0 0 1 613.1149 355.0663)"
			style="font-family:'Arial'; font-size:9px;">89,4ºC</text>
	</g>

	<line style="fill:none;stroke:#000000;stroke-miterlimit:10;" x1="576.1" y1="367.8" x2="576.1" y2="357.4" />

	<g>
		<text transform="matrix(1 0 0 1 570.0966 342.7905)" style="font-family:'Arial'; font-size:10px;">PE1</text>
		<polygon style="fill:#FFFFFF;stroke:#000000;stroke-width:0.25;stroke-miterlimit:10;" points="600.1,357.5 555.1,357.5
		555.1,357.5 555.1,346.3 555.1,346.3 600.1,346.3 600.1,346.3 600.1,357.5 	" />
		<text data-state="pressOutNet" transform="matrix(1 0 0 1 560 355.041)"
			style="font-family:'Arial'; font-size:9px;">3,0 бар</text>
	</g>

	<line style="fill:none;stroke:#000000;stroke-miterlimit:10;" x1="349.9" y1="417.4" x2="349.9" y2="369.3" />
	<circle style="stroke:#000000;stroke-miterlimit:10;" cx="349.9" cy="367.6" r="1.3" />
	<circle style="stroke:#000000;stroke-miterlimit:10;" cx="432.2" cy="367.6" r="1.3" />
	<circle style="stroke:#000000;stroke-miterlimit:10;" cx="576.4" cy="367.8" r="1.3" />
	<line style="fill:none;stroke:#000000;stroke-miterlimit:10;" x1="501" y1="367.8" x2="501" y2="357.4" />

	<g>
		<text transform="matrix(1 0 0 1 488.8081 344.3249)" style="font-family:'Arial'; font-size:10px;">PE1.1</text>
		<polygon style="fill:#FFFFFF;stroke:#000000;stroke-width:0.25;stroke-miterlimit:10;" points="525,357.5 480,357.5 480,357.5
		480,346.3 480,346.3 525,346.3 525,346.3 525,357.5 	" />
		<text transform="matrix(1 0 0 1 486.6518 355.0417)" style="font-family:'Arial'; font-size:9px;"></text>
	</g>

	<circle style="stroke:#000000;stroke-miterlimit:10;" cx="501" cy="367.7" r="1.3" />
	<circle style="stroke:#000000;stroke-miterlimit:10;" cx="626" cy="367.7" r="1.3" />

	<g>
		<text transform="matrix(1 0 0 1 456.8708 304.6798)" style="font-family:'Arial'; font-size:10px;">FE2</text>
		<polygon style="fill:#FFFFFF;stroke:#000000;stroke-width:0.25;stroke-miterlimit:10;" points="495.4,319.4 440.4,319.4
		440.4,319.4 440.4,307.1 440.4,307.1 495.4,307.1 495.4,307.1 495.4,319.4 	" />
		<text transform="matrix(1 0 0 1 446.8359 316.9419)" style="font-family:'Arial'; font-size:9px;"></text>
	</g>

	<line style="fill:none;stroke:#000000;stroke-miterlimit:10;" x1="432.5" y1="313.6" x2="432.5" y2="303.3" />

	<g>
		<text transform="matrix(1 0 0 1 420.0346 289.8109)" style="font-family:'Arial'; font-size:10px;">TE2.1</text>
		<polygon style="fill:#FFFFFF;stroke:#000000;stroke-width:0.25;stroke-miterlimit:10;" points="455,303.3 410,303.3 410,303.3
		410,292.2 410,292.2 455,292.2 455,292.2 455,303.3 	" />
		<text transform="matrix(0.9775 0 0 1 418.8481 300.8748)" style="font-family:'Arial'; font-size:9px;"></text>
	</g>

	<line style="fill:none;stroke:#000000;stroke-miterlimit:10;" x1="626" y1="313.2" x2="626" y2="303" />

	<g>
		<text transform="matrix(1 0 0 1 618.5919 289.8109)" style="font-family:'Arial'; font-size:10px;">TE2</text>
		<polygon style="fill:#FFFFFF;stroke:#000000;stroke-width:0.25;stroke-miterlimit:10;" points="648.5,303 603.5,303 603.5,303
		603.5,291.8 603.5,291.8 648.5,291.8 648.5,291.8 648.5,303 	" />
		<text data-state="tempInNet" transform="matrix(1 0 0 1 613.1149 300.5269)"
			style="font-family:'Arial'; font-size:9px;">89,4ºC</text>
	</g>

	<line style="fill:none;stroke:#000000;stroke-miterlimit:10;" x1="576.7" y1="313.3" x2="576.7" y2="302.9" />

	<g>
		<rect x="554.7" y="291.8" width="45" height="11.2"
			style="fill:#FFFFFF;stroke:#000000;stroke-width:0.25;stroke-miterlimit:10;" />
		<text data-state="pressInNet" transform="matrix(1 0 0 1 560 300.5271)"
			style="font-family:'Arial'; font-size:9px;">3,0 бар</text>
		<text transform="matrix(1 0 0 1 569.3263 289.8113)" style="font-family:'Arial'; font-size:10px;">PE2</text>
	</g>

	<circle style="stroke:#000000;stroke-miterlimit:10;" cx="432.5" cy="313.1" r="1.3" />
	<circle style="stroke:#000000;stroke-miterlimit:10;" cx="576.7" cy="313.2" r="1.3" />
	<line style="fill:none;stroke:#000000;stroke-miterlimit:10;" x1="501.3" y1="313.3" x2="501.3" y2="302.9" />

	<g>
		<text transform="matrix(1 0 0 1 490.322 289.483)" style="font-family:'Arial'; font-size:10px;">PE2.1</text>
		<polygon style="fill:#FFFFFF;stroke:#000000;stroke-width:0.25;stroke-miterlimit:10;" points="523.8,303 478.8,303 478.8,303
		478.8,291.8 478.8,291.8 523.8,291.8 523.8,291.8 523.8,303 	" />
		<text transform="matrix(1 0 0 1 486.906 300.5271)" style="font-family:'Arial'; font-size:9px;"></text>
	</g>

	<circle style="stroke:#000000;stroke-miterlimit:10;" cx="501.3" cy="313.2" r="1.3" />
	<circle style="stroke:#000000;stroke-miterlimit:10;" cx="626" cy="313.2" r="1.3" />

	<g data-section="parameters">
		<g>
			<path style="fill:#CCCCCC;stroke:#000000;stroke-width:0.25;stroke-miterlimit:10;" d="M375.7,74h-65.5c-3.1,0-5.7-2.5-5.7-5.7
		V49.6c0-3.1,2.5-5.7,5.7-5.7h65.5c3.1,0,5.7,2.5,5.7,5.7v18.7C381.4,71.4,378.8,74,375.7,74z" />
			<text transform="matrix(1 0 0 1 322.1674 56.0185)"
				style="font-family:'Arial'; font-size:10px;">Т12&#160;(н.в.)</text>
			<text data-state="tempOutAir" transform="matrix(1 0 0 1 325 68.608)"
				style="font-family:'Arial'; font-size:9px;">20,56ºC</text>
		</g>

		<g>
			<path style="fill:#CCCCCC;stroke:#000000;stroke-width:0.25;stroke-miterlimit:10;" d="M459.7,74h-65.5c-3.1,0-5.7-2.5-5.7-5.7
		V49.6c0-3.1,2.5-5.7,5.7-5.7h65.5c3.1,0,5.7,2.5,5.7,5.7v18.7C465.4,71.4,462.8,74,459.7,74z" />
			<text transform="matrix(1 0 0 1 413.7932 56.0721)" style="font-family:'Arial'; font-size:10px;">Ргаза</text>
			<text data-state="pressGas" transform="matrix(1 0 0 1 410 68.608)"
				style="font-family:'Arial'; font-size:9px;"></text>
		</g>
		<g>
			<path style="fill:#CCCCCC;stroke:#000000;stroke-width:0.25;stroke-miterlimit:10;" d="M291.3,74h-65.5c-3.1,0-5.7-2.5-5.7-5.7
		V49.6c0-3.1,2.5-5.7,5.7-5.7h65.5c3.1,0,5.7,2.5,5.7,5.7v18.7C297,71.4,294.5,74,291.3,74z" />
			<text transform="matrix(1 0 0 1 233.8525 56.0721)"
				style="font-family:'Arial'; font-size:10px;">Т11&#160;(внутр.)</text>
			<text data-state="tempRoomAir" transform="matrix(1 0 0 1 245 68.608)"
				style="font-family:'Arial'; font-size:9px;"></text>
		</g>
		<path style="fill:none;stroke:#666666;stroke-width:0.5;stroke-miterlimit:10;" d="M580.5,83.5H104c-5.2,0-9.4-4.2-9.4-9.4V23.4
		c0-5.2,4.2-9.4,9.4-9.4h476.4c5.2,0,9.4,4.2,9.4,9.4v50.7C589.9,79.3,585.7,83.5,580.5,83.5z" />
		<text transform="matrix(1 0 0 1 256.8206 31.7009)" style="font-family:'Arial'; font-size:10px;">Прочие параметры
			работы котельной</text>

	</g>
	<g data-section="emergency">
		<g data-section="isConnected">
			<path data-colorizer-hint="fill" data-state="isConnected"
				style="fill:none;stroke:#060606;stroke-linecap:round;stroke-miterlimit:10;" d="M69.5,146.3h-26c-6.6,0-12-5.4-12-12v-26
		c0-6.6,5.4-12,12-12h26c6.6,0,12,5.4,12,12v26C81.5,140.9,76.1,146.3,69.5,146.3z" />
			<text transform="matrix(1 0 0 1 44.0624 138.5239)" style="font-family:'Arial'; font-size:9px;">Связь</text>
			<path
				d="M60.8,110.5c-1.3-0.3-2.5-0.4-3.9-0.4c-3.9,0-7.5,1.3-10.3,3.4c-0.3,0.3-0.3,0.7-0.2,0.9l0.1,0.1c0.3,0.3,0.7,0.3,0.9,0.1
		c2.8-2,6-3,9.5-3c0.9,0,1.8,0.1,2.6,0.2L60.8,110.5z M57,114.2c-2.7,0-5.2,0.8-7.3,2.2c-0.3,0.2-0.4,0.7-0.2,0.9l0.1,0.1
		c0.3,0.3,0.7,0.3,0.9,0.1c1.5-0.9,3.2-1.6,5-1.8L57,114.2z M60.6,116.2l1.1-1.1c0.9,0.3,1.8,0.8,2.5,1.3c0.3,0.3,0.4,0.7,0.2,0.9
		l-0.1,0.1c-0.3,0.3-0.7,0.3-0.9,0.1C62.5,117,61.6,116.6,60.6,116.2L60.6,116.2z M57,119.9l1.3-1.3c1,0.2,1.9,0.4,2.9,0.9
		c0.4,0.2,0.4,0.8,0.2,1.1l0,0c-0.3,0.3-0.6,0.3-0.8,0.2C59.3,120.2,58.2,119.9,57,119.9 M63.9,113l1.1-1.1c0.8,0.4,1.6,0.9,2.4,1.4
		c0.3,0.3,0.3,0.7,0.2,0.9l-0.1,0.1c-0.3,0.3-0.7,0.3-0.9,0.1C65.6,113.9,64.8,113.4,63.9,113 M58.4,122.4c0.3,0.2,0.3,0.7,0.1,0.9
		l-1,1c-0.3,0.3-0.8,0.3-1,0l-1-1c-0.3-0.3-0.3-0.8,0.1-0.9c0.4-0.3,0.9-0.4,1.4-0.4C57.5,122,58,122.1,58.4,122.4L58.4,122.4z
		 M64.5,108.4c0.3-0.3,0.8-0.3,1.1,0c0.3,0.3,0.3,0.8,0,1.1l-15.2,15.2c-0.3,0.3-0.8,0.3-1.1,0c-0.3-0.3-0.3-0.8,0-1.1L64.5,108.4z" />
		</g>

		<g data-section="isCO">
			<path data-colorizer="fill" data-state="isCO"
				style="fill:none;stroke:#060606;stroke-linecap:round;stroke-miterlimit:10;" d="M69.4,311.2h-26c-6.6,0-12-5.4-12-12v-26
		c0-6.6,5.4-12,12-12h26c6.6,0,12,5.4,12,12v26C81.4,305.8,76,311.2,69.4,311.2z" />
			<use href="#carbonMonoxideAlarmIcon" transform=" translate(42 265) scale(0.7)" />
			<text transform="matrix(1 0 0 1 49 303.373)" style="font-family:'Arial'; font-size:9px;">CO</text>
		</g>

		<g data-section="isCH">
			<path data-colorizer-hint="fill" data-state="isCH"
				style="fill:none;stroke:#060606;stroke-linecap:round;stroke-miterlimit:10;" d="M68.6,365.9h-26c-6.6,0-12-5.4-12-12v-26
		c0-6.6,5.4-12,12-12h26c6.6,0,12,5.4,12,12v26C80.6,360.5,75.2,365.9,68.6,365.9z" />

			<text transform="matrix(1 0 0 1 49 358.1533)" style="font-family:'Arial'; font-size:9px;">CH</text>
			<g id="g3517-3_1_" transform="matrix(0.93449242,0,0,0.93449242,-75.04396,-3.2503739)">
				<path id="path3513-9_1_" d="M155.3,368.9C155.2,368.9,155.2,368.9,155.3,368.9l-3-2.6c-0.3-0.3-0.9-0.5-2-0.1l-2.2-2
			c0.7-0.9,0.8-0.9,1.1-1.3l0.6,0.5c0.8,0.7,2.1,0.7,2.9,0c0.8-0.7,0.8-1.9,0-2.6l-1.6-1.4c0.3-1,0.5-2,0.5-3c0-0.9-0.1-1.7-0.4-2.6
			l1.5-1.4c0.8-0.7,0.8-1.9,0-2.6c-0.8-0.7-2.1-0.7-2.9,0l-0.5,0.4c-2.1-2.6-5.6-4.3-9.4-4.3c-3.8,0-7.2,1.6-9.4,4.3l-0.5-0.4
			c-0.8-0.7-2.1-0.7-2.9,0c-0.8,0.7-0.8,1.9,0,2.6l1.5,1.4c-0.2,0.8-0.4,1.7-0.4,2.6c0,1,0.2,2,0.5,3l-1.6,1.5
			c-0.8,0.7-0.8,1.9,0,2.6c0.8,0.7,2.1,0.7,2.9,0l0.6-0.6c0.1,0.1,0.2,0.3,0.3,0.4l0.8,0.9l-2.3,2.1c-1.1-0.4-1.7-0.2-2,0.1
			l-2.9,2.6c0,0,0,0,0,0.1c-0.9,0.9,0.3,2.8,2,4.3c1.1,1,3.6,2.7,4.8,1.8c0,0,0,0,0,0l2.9-2.6c0.3-0.3,0.6-0.8,0.1-1.8l0.9-0.8
			c1.2,1.2,2.9,1.9,4.7,1.9c1.8,0,3.5-0.7,4.7-1.9l1,0.9c-0.5,1-0.2,1.5,0.1,1.8l2.9,2.6l0,0c1.2,1,3.7-0.7,4.8-1.7
			C154.9,371.7,156.2,369.8,155.3,368.9L155.3,368.9z M151.6,361.7c0.3,0.2,0.3,0.6,0,0.9c-0.3,0.2-0.7,0.2-1,0l-0.8-0.7
			c0.2-0.4,0.4-0.8,0.6-1.2L151.6,361.7z M150.6,350.7c0.3-0.2,0.7-0.2,1,0c0.3,0.2,0.3,0.6,0,0.9l-1,0.9c-0.2-0.4-0.4-0.8-0.6-1.2
			L150.6,350.7z M127.9,351.6c-0.3-0.2-0.3-0.6,0-0.9c0.3-0.2,0.7-0.2,1,0l0.7,0.6c-0.2,0.4-0.4,0.8-0.6,1.2L127.9,351.6z
			 M128.9,362.6c-0.3,0.2-0.7,0.2-1,0c-0.3-0.2-0.3-0.6,0-0.9l1.2-1c0.2,0.4,0.4,0.8,0.6,1.2L128.9,362.6z M130,359.4
			c-0.4-1-0.5-2-0.5-3c0-5,4.6-9.1,10.3-9.1s10.3,4.1,10.3,9.1c0,2.3-0.9,4.5-2.3,6.2l-1.9,2.3c-0.6-2.5-3.1-4.3-6-4.3
			c-2.8,0-5.2,1.7-5.9,4C132,362.5,130.8,361.6,130,359.4L130,359.4z M143.3,363.2l-1.2,0.7c-0.6-0.6-1.5-0.9-2.4-0.9
			s-1.8,0.3-2.4,0.9l-1.2-0.7c0.9-0.9,2.2-1.4,3.6-1.4C141.1,361.8,142.4,362.4,143.3,363.2z M127.2,372.3c-1.3-1.2-1.8-2.2-1.9-2.5
			c0.4,0,1.5,0.5,2.9,1.7c1.3,1.2,1.8,2.2,1.9,2.5C129.7,373.9,128.6,373.5,127.2,372.3L127.2,372.3z M131.2,373.1
			c-0.4-0.9-1.3-1.8-2-2.5c-0.9-0.8-1.9-1.5-2.8-1.8l1.8-1.6c0.3,0,0.7,0.2,0.9,0.3c0.6,0.3,1.3,0.8,2,1.4c1.1,1,1.6,1.8,1.6,1.8
			c0.1,0.2,0.3,0.6,0.3,0.8L131.2,373.1z M133.4,369.4c-0.4-0.5-0.8-0.9-1.3-1.4s-1.1-0.9-1.6-1.2l2-1.7l1.1,1.2
			c0,0.8,0.3,1.6,0.7,2.3L133.4,369.4z M139.1,370.3c-2.3-0.3-4.1-2.1-4.1-4.2c0-0.6,0.2-1.3,0.5-1.8l1.2,0.7
			c-0.2,0.4-0.3,0.8-0.3,1.1c0,1.5,1.2,2.7,2.7,3V370.3z M137.7,366.1c0-1,0.9-1.8,2.1-1.8c1.1,0,2.1,0.8,2.1,1.8s-0.9,1.8-2.1,1.8
			C138.6,367.9,137.7,367.1,137.7,366.1z M140.4,370.3v-1.2c1.6-0.3,2.7-1.5,2.7-3c0-0.4-0.1-0.8-0.3-1.1l1.2-0.7
			c0.3,0.6,0.5,1.2,0.5,1.8C144.5,368.2,142.8,370,140.4,370.3z M145.2,368.6c0.3-0.6,0.5-1.2,0.6-1.8l1.3-1.6l1.8,1.6
			c-0.5,0.3-1.1,0.7-1.6,1.2c-0.5,0.5-1,0.9-1.3,1.4L145.2,368.6z M148.3,373.1l-1.8-1.6c0-0.2,0.2-0.6,0.3-0.8
			c0.3-0.6,0.9-1.2,1.6-1.8c1.1-1,2-1.4,2-1.4c0.2-0.1,0.7-0.3,0.9-0.3l1.8,1.6c-0.9,0.3-1.9,1-2.8,1.8
			C149.6,371.3,148.8,372.2,148.3,373.1L148.3,373.1z M152.3,372.3c-1.3,1.2-2.5,1.6-2.9,1.7c0-0.4,0.6-1.3,1.9-2.5
			c1.3-1.2,2.5-1.6,2.9-1.7C154.1,370.1,153.6,371.1,152.3,372.3z" />
				<path id="path3507-2_1_" d="M134.2,350.9c-1.9,0-3.4,2.1-3.4,4.9c0,2.7,1.5,4.9,3.4,4.9c1.9,0,3.4-2.1,3.4-4.9
			C137.7,353,136.2,350.9,134.2,350.9z M134.2,359.4c-1,0-2.1-1.5-2.1-3.6c0-2.2,1.1-3.6,2.1-3.6c1,0,2.1,1.5,2.1,3.6
			C136.3,357.9,135.2,359.4,134.2,359.4z" />
				<path id="path3501-5_1_" d="M145.2,350.9c-1.9,0-3.4,2.1-3.4,4.9c0,2.7,1.5,4.9,3.4,4.9c1.9,0,3.4-2.1,3.4-4.9
			C148.6,353,147.1,350.9,145.2,350.9z M145.2,359.4c-1,0-2.1-1.5-2.1-3.6c0-2.2,1.1-3.6,2.1-3.6c1,0,2.1,1.5,2.1,3.6
			C147.3,357.9,146.2,359.4,145.2,359.4z" />
				<path id="path3495-4_1_" d="M140.6,348.5c-0.3,0-0.6,0-0.8,0c-1.2,0-2.4,0.2-3.5,0.6c-0.3,0.1-0.5,0.5-0.4,0.8
			c0.1,0.3,0.6,0.5,0.9,0.3c0.9-0.3,1.9-0.5,2.9-0.5c0.2,0,0.5,0,0.7,0c0.4,0,0.7-0.2,0.7-0.5C141.2,348.8,140.9,348.5,140.6,348.5
			L140.6,348.5z" />
				<path id="path3489-3_1_" d="M143.2,349.1c-0.4,0-0.7,0.3-0.7,0.6s0.3,0.6,0.7,0.6c0.4,0,0.7-0.3,0.7-0.6S143.5,349.1,143.2,349.1z
			" />
			</g>

		</g>

		<g data-section="isFireAlarm">
			<path data-colorizer-hint="fill" data-state="isFireAlarm"
				style="fill:none;stroke:#060606;stroke-linecap:round;stroke-miterlimit:10;" d="M69.5,201.6h-26c-6.6,0-12-5.4-12-12v-26
		c0-6.6,5.4-12,12-12h26c6.6,0,12,5.4,12,12v26C81.5,196.2,76.1,201.6,69.5,201.6z" />

			<use href="#fireAlarmIcon" x="0" y="0" transform="translate(43, 158), scale(0.7)" />
			<text transform="matrix(1 0 0 1 42.1821 193.8071)" style="font-family:'Arial'; font-size:9px;">Пожар</text>
		</g>

		<g data-section="isSecurityAlarm">
			<path data-colorizer-hint="fill" data-state="isSecurityAlarm"
				style="fill:none;stroke:#060606;stroke-linecap:round;stroke-miterlimit:10;" d="M69.5,256.9h-26c-6.6,0-12-5.4-12-12v-26
		c0-6.6,5.4-12,12-12h26c6.6,0,12,5.4,12,12v26C81.5,251.5,76.1,256.9,69.5,256.9z" />
			<use href="#securityAlarmIcon" x="0" y="0" transform="translate(41, 208), scale(0.15)" />
			<text transform="matrix(1 0 0 1 41 249)" style="font-family:'Arial'; font-size:9px;">Охрана</text>
		</g>

		<g data-section="isGasFlap">
			<path data-colorizer-hint="fill" data-state="isGasFlap"
				style="fill:none;stroke:#060606;stroke-linecap:round;stroke-miterlimit:10;" d="M69.1,421.7h-26c-6.6,0-12-5.4-12-12v-26
		c0-6.6,5.4-12,12-12h26c6.6,0,12,5.4,12,12v26C81.1,416.3,75.7,421.7,69.1,421.7z" />
			<text transform="matrix(1 0 0 1 41.5478 407.6738)">
				<tspan x="0" y="0" style="font-family:'Arial'; font-size:9px;">клапан</tspan>
				<tspan x="-2.3" y="9.5" style="font-family:'Arial'; font-size:9px;">газовый</tspan>
			</text>
			<g id="g11940-1" transform="translate(-204.57034,-228.09317)">
				<path id="path11920-9"
					style="fill:none;stroke:#060606;stroke-width:1.0422;stroke-linecap:round;stroke-miterlimit:5.8623;"
					d="
			M251.8,623.1v-9.5l17.7,9.6v-9.5L251.8,623.1z" />
				<path id="path11922-6"
					style="fill:none;stroke:#060606;stroke-width:1.7824;stroke-linecap:round;stroke-miterlimit:5.8623;"
					d="
			M271.2,623.2v-9.6" />
				<path id="path11924-2"
					style="fill:none;stroke:#060606;stroke-width:1.7824;stroke-linecap:round;stroke-miterlimit:5.8623;"
					d="
			M250.1,623.1v-9.5" />
				<path id="rect11926-0"
					style="fill:none;stroke:#060606;stroke-width:1.3383;stroke-linecap:round;stroke-miterlimit:5.8623;"
					d="
			M259.1,603.4h2.9c1.4,0,2.5,1.2,2.5,2.7v5.5c0,1.5-1.1,2.7-2.5,2.7h-2.9c-1.4,0-2.5-1.2-2.5-2.7v-5.5
			C256.6,604.6,257.7,603.4,259.1,603.4z" />
				<path id="path11930-6"
					style="fill:none;stroke:#060606;stroke-width:1.0422;stroke-linecap:round;stroke-miterlimit:5.8623;"
					d="
			M260.6,618.3v-4.2" />
				<path id="path11942-6"
					style="fill:none;stroke:#060606;stroke-width:0.7731;stroke-linecap:round;stroke-miterlimit:5.8623;"
					d="
			M258,609.4c0,0,0.5-1.3,1.5-1.3s1.4,1.8,2.4,1.8c0.9,0,1.4-1.2,1.4-1.2" />
			</g>
		</g>

		<path style="fill:none;stroke:#666666;stroke-width:0.5;stroke-miterlimit:10;" d="M79.6,427.8H17.5c-5.2,0-9.4-4.2-9.4-9.4V97.9
		c0-5.2,4.2-9.4,9.4-9.4h62.1c5.2,0,9.4,4.2,9.4,9.4v320.5C89.1,423.6,84.8,427.8,79.6,427.8z" />
		<text transform="matrix(0 -1 1 0 21.7044 308.4746)" style="font-family:'Arial'; font-size:10px;">Аварийные
			события</text>
	</g>

	<line style="fill:none;stroke:#000000;stroke-miterlimit:10;" x1="172.7" y1="228.2" x2="172.7" y2="197.7" />
	<line style="fill:none;stroke:#000000;stroke-miterlimit:10;" x1="531.6" y1="214.9" x2="531.5" y2="197.6" />
	<line style="fill:none;stroke:#F7931E;stroke-miterlimit:10;" x1="135.8" y1="417.3" x2="317.7" y2="417.3" />
	<line style="fill:none;stroke:#F7931E;stroke-miterlimit:10;" x1="204.8" y1="190.7" x2="235.8" y2="190.7" />
	<line style="fill:none;stroke:#F7931E;stroke-miterlimit:10;" x1="243.7" y1="190.7" x2="261" y2="190.7" />
	<line style="fill:none;stroke:#F7931E;stroke-miterlimit:10;" x1="443.8" y1="190.7" x2="474.7" y2="190.7" />
	<line style="fill:none;stroke:#F7931E;stroke-miterlimit:10;" x1="483.5" y1="190.7" x2="500.5" y2="190.7" />
	<line style="fill:none;stroke:#F7931E;stroke-miterlimit:10;" x1="317.7" y1="417.3" x2="317.7" y2="371.5" />

	<g>
		<text transform="matrix(1 0 0 1 172.6377 407.7655)" style="font-family:'Arial'; font-size:10px;">FE3.1</text>
		<polygon style="fill:#FFFFFF;stroke:#000000;stroke-width:0.25;stroke-miterlimit:10;" points="220.8,423.7 155.8,423.7
		155.8,423.7 155.8,411.4 155.8,411.4 220.8,411.4 220.8,411.4 220.8,423.7 	" />
		<text transform="matrix(1 0 0 1 164.9556 421.2297)" style="font-family:'Arial'; font-size:9px;"></text>
	</g>

	<line style="fill:none;stroke:#F7931E;stroke-miterlimit:10;" x1="240" y1="417.6" x2="240" y2="407.4" />

	<g>
		<text transform="matrix(1 0 0 1 227.5563 394.2139)" style="font-family:'Arial'; font-size:10px;">TE14</text>
		<polygon style="fill:#FFFFFF;stroke:#000000;stroke-width:0.25;stroke-miterlimit:10;" points="262.5,407.4 217.5,407.4
		217.5,407.4 217.5,396.2 217.5,396.2 262.5,396.2 262.5,396.2 262.5,407.4 	" />
		<text transform="matrix(1 0 0 1 227.0793 404.9299)" style="font-family:'Arial'; font-size:9px;"></text>
	</g>
	<circle style="fill:#F7931E;stroke:#F7931E;stroke-miterlimit:10;" cx="240" cy="417.5" r="1.3" />
	<line style="fill:none;stroke:#F7931E;stroke-miterlimit:10;" x1="289.5" y1="417.7" x2="289.5" y2="407.3" />
	<g>
		<polygon style="fill:#FFFFFF;stroke:#000000;stroke-width:0.25;stroke-miterlimit:10;" points="315.2,407.4 265.2,407.4
		265.2,407.4 265.2,396.2 265.2,396.2 315.2,396.2 315.2,396.2 315.2,407.4 	" />
		<text transform="matrix(0.9091 0 0 1 271.954 404.9297)" style="font-family:'Arial'; font-size:9px;"></text>
		<text transform="matrix(1 0 0 1 280.1481 393.8525)" style="font-family:'Arial'; font-size:10px;">PE4</text>
	</g>
	<circle style="fill:#F7931E;stroke:#F7931E;stroke-miterlimit:10;" cx="289.5" cy="417.3" r="1.3" />
	<circle style="fill:#F7931E;stroke:#F7931E;stroke-miterlimit:10;" cx="448.5" cy="190.7" r="1.3" />
	<circle style="fill:#F7931E;stroke:#F7931E;stroke-miterlimit:10;" cx="318.2" cy="269.6" r="1.3" />
	<circle style="fill:#F7931E;stroke:#F7931E;stroke-miterlimit:10;" cx="226.9" cy="190.7" r="1.3" />
	<polygon style="fill:#F7931E;stroke:#F7931E;stroke-width:0.5;stroke-miterlimit:10;" points="129.8,417.6 118.7,423 118.7,412.2
	129.8,417.6 " />
	<text transform="matrix(1 0 0 1 118.7411 435.1607)" style="font-family:'Arial'; font-size:10px;">Г1</text>
	<line style="fill:none;stroke:#F7931E;stroke-miterlimit:10;" x1="318.1" y1="362.9" x2="318.1" y2="269.6" />
	<line style="fill:none;stroke:#F7931E;stroke-miterlimit:10;" x1="226.8" y1="269.6" x2="448.5" y2="269.6" />
	<line style="fill:none;stroke:#F7931E;stroke-miterlimit:10;" x1="226.9" y1="249.5" x2="226.9" y2="190.7" />
	<line style="fill:none;stroke:#F7931E;stroke-miterlimit:10;" x1="226.9" y1="270" x2="226.9" y2="258.8" />
	<line style="fill:none;stroke:#F7931E;stroke-miterlimit:10;" x1="448.5" y1="249.5" x2="448.5" y2="190.7" />
	<line style="fill:none;stroke:#F7931E;stroke-miterlimit:10;" x1="448.5" y1="270" x2="448.5" y2="258.6" />
	<g>
		<circle style="fill:none;stroke:#000000;stroke-miterlimit:10;" cx="398.1" cy="403.2" r="10.6" />
		<circle style="fill:none;stroke:#000000;stroke-width:0.25;stroke-miterlimit:10;" cx="398.1" cy="403.2"
			r="9.3" />
		<polygon style="stroke:#4D4D4D;stroke-width:0.25;stroke-miterlimit:10;" points="389.3,403.3 396,399.3 396,407.2 389.3,403.3
		" />
		<g>
			<path style="fill:none;stroke:#0000FF;stroke-width:2;stroke-miterlimit:10;" d="M384.6,413.8v-21c0-1.4,1.2-2.6,2.6-2.6h21.6
			c1.4,0,2.6,1.2,2.6,2.6v21c0,1.4-1.2,2.6-2.6,2.6h-21.6C385.8,416.3,384.6,415.2,384.6,413.8z" />
		</g>
	</g>
	<line style="fill:none;stroke:#000000;stroke-miterlimit:10;" x1="589.9" y1="254.8" x2="186.1" y2="254.8" />
	<line style="fill:none;stroke:#000000;stroke-miterlimit:10;" x1="172.3" y1="234.8" x2="172.3" y2="241.4" />
	<g>
		<text transform="matrix(1 0 0 1 180.8857 238.782)" style="font-family:'Arial'; font-size:10px;">РК1</text>
		<g>
			<g>
				<polygon style="fill:#F2F2F2;stroke:#000000;stroke-width:0.5;stroke-miterlimit:10;" points="171.1,254.8 165.9,246.7
				176.4,246.7 171.1,254.8 			" />
				<polygon style="fill:#F2F2F2;stroke:#000000;stroke-width:0.5;stroke-miterlimit:10;" points="171.1,254.8 176.4,262.8
				165.9,262.8 171.1,254.8 			" />
				<polygon style="fill:#F2F2F2;stroke:#000000;stroke-width:0.5;stroke-miterlimit:10;" points="171.3,254.8 179.4,249.5
				179.4,260 171.3,254.8 			" />
			</g>
			<g>
				<path style="fill:none;stroke:#0000FF;stroke-width:2;stroke-miterlimit:10;" d="M183.1,268.1h-21c-1.4,0-2.6-1.2-2.6-2.6V244
				c0-1.4,1.2-2.6,2.6-2.6h21c1.4,0,2.6,1.2,2.6,2.6v21.6C185.7,267,184.5,268.1,183.1,268.1z" />
			</g>
		</g>
	</g>
	<line style="fill:none;stroke:#000000;stroke-miterlimit:10;" x1="172.3" y1="234.8" x2="95.9" y2="234.8" />
	<line style="fill:none;stroke:#000000;stroke-miterlimit:10;" x1="440.4" y1="313.1" x2="349.9" y2="313.1" />
	<line style="fill:none;stroke:#000000;stroke-miterlimit:10;" x1="349.9" y1="254.8" x2="349.9" y2="313.1" />
	<circle style="stroke:#000000;stroke-miterlimit:10;" cx="349.9" cy="254.8" r="1.3" />
	<line style="fill:none;" x1="31.2" y1="-7973.6" x2="31.2" y2="8409.4" />



	<rect x="440.2" y="66.4" style="fill:none;" width="19.1" height="0" />
</svg>