<?xml version="1.0" encoding="utf-8"?>
<!-- Generator: Adobe Illustrator 27.3.1, SVG Export Plug-In . SVG Version: 6.00 Build 0)  -->
<svg version="1.1" id="Layer_1"
	xmlns="http://www.w3.org/2000/svg"
	xmlns:xlink="http://www.w3.org/1999/xlink" x="0px" y="0px" viewBox="0 0 436.4 278.8" style="enable-background:new 0 0 436.4 278.8;" xml:space="preserve">

	<defs>
		<g id="emergencyIcon">
			<rect style="fill:#606060;" width="2" height="10" transform="translate(8, 5)"/>
			<path style="fill:#FFC107;cursor:pointer" transform="scale(0.035)" d="M479 447.77 268.43 56.64a8 8 0 0 0-14.09 0L43.73 447.77a8 8 0 0 0 7.05 11.79H472a8 8 0 0 0 7-11.79zm-197.62-36.29h-40v-40h40zm-4-63.92h-32l-6-160h44z">
			</path>
		</g>
	</defs>

	<g data-section="timestamp">
		<g transform="matrix(1 0 0 1 10 10)" data-state="timestamp" data-state-eval="if(state.isConnected === false) {element.style.fill = 'red'}">
			<text data-state="timestamp" data-state-format="date" style="font-family: Roboto,Helvetica,Arial,sans-serif; font-size:9px;">{{timestamp}}</text>
			<text data-state="timestamp" data-state-format="time" transform="matrix(1 0 0 1 5 13)" style="font-family: Roboto,Helvetica,Arial,sans-serif; font-size:9px;">{{timestamp}}</text>
		</g>
	</g>

	<line style="fill:none;stroke:#000000;stroke-miterlimit:10;" x1="235.8" y1="95.7" x2="188.4" y2="95.7"/>
	<line style="fill:none;stroke:#000000;stroke-miterlimit:10;" x1="274.6" y1="95.7" x2="262.4" y2="95.7"/>
	<g>
		<circle style="fill:none;stroke:#000000;stroke-miterlimit:10;" cx="249.3" cy="95.8" r="10.6"/>
		<circle style="fill:none;stroke:#000000;stroke-width:0.25;stroke-miterlimit:10;" cx="249.3" cy="95.7" r="9.3"/>
		<polygon style="stroke:#4D4D4D;stroke-width:0.25;stroke-miterlimit:10;" points="240.6,95.8 247.2,91.8 247.2,99.7 240.6,95.8
		"/>
		<g>
			<path style="fill:none;stroke:#0000FF;stroke-width:2;stroke-miterlimit:10;" d="M235.8,106.3v-21c0-1.4,1.2-2.6,2.6-2.6H260
			c1.4,0,2.6,1.2,2.6,2.6v21c0,1.4-1.2,2.6-2.6,2.6h-21.6C237,108.9,235.8,107.7,235.8,106.3z"/>
		</g>
	</g>
	<line style="fill:none;stroke:#000000;stroke-miterlimit:10;" x1="396.3" y1="95.8" x2="301.4" y2="95.8"/>
	<line style="fill:none;stroke:#000000;stroke-miterlimit:10;" x1="396.3" y1="57.4" x2="188.4" y2="57.4"/>
	<g>

		<rect x="279.4" y="89.5" style="fill:#F2F2F2;stroke:#000000;stroke-width:0.5;stroke-miterlimit:10;" width="16.7" height="11.3"/>
		<polygon style="fill:#666666;stroke:#000000;stroke-width:0.5;stroke-miterlimit:10;" points="287.7,95.3 296,89.8 296,100.8
		280,100.8 	"/>
		<g>
			<path style="fill:none;stroke:#0000FF;stroke-width:2;stroke-miterlimit:10;" d="M274.6,106.2v-21c0-1.4,1.2-2.6,2.6-2.6h21.6
			c1.4,0,2.6,1.2,2.6,2.6v21c0,1.4-1.2,2.6-2.6,2.6h-21.6C275.8,108.8,274.6,107.7,274.6,106.2z"/>
		</g>
	</g>
	<text transform="matrix(1 0 0 1 235.8254 75.7822)" style="font-family:'MyriadPro-Regular'; font-size:10.2182px;">ЦНГВ1</text>
	<text transform="matrix(1 0 0 1 127.5686 43.6562)" style="font-family:'MyriadPro-Regular'; font-size:10.2182px;">ТОА ГВ</text>
	<g>
		<path style="fill:#999999;stroke:#000000;stroke-miterlimit:10;" d="M170.4,143.8h-25.1c-3.7,0-6.7-3-6.7-6.7V57.5
		c0-3.7,3-6.7,6.7-6.7h25.1c3.7,0,6.7,3,6.7,6.7v79.7C177,140.8,174,143.8,170.4,143.8z"/>
		<circle style="fill:none;stroke:#FF0000;stroke-miterlimit:10;" cx="145" cy="57.4" r="3.7"/>
		<circle style="fill:none;stroke:#0000FF;stroke-miterlimit:10;" cx="145" cy="136.4" r="3.7"/>
		<circle style="fill:none;stroke:#FF0000;stroke-miterlimit:10;" cx="170.8" cy="57.4" r="3.7"/>
		<circle style="fill:none;stroke:#0000FF;stroke-miterlimit:10;" cx="170.8" cy="136.4" r="3.7"/>
		<circle style="fill:none;stroke:#F15A24;stroke-miterlimit:10;" cx="145" cy="95.6" r="3.7"/>
		<circle style="fill:none;stroke:#F15A24;stroke-miterlimit:10;" cx="170.8" cy="95.6" r="3.7"/>
	</g>
	<g>
		<polygon style="fill:#999999;stroke:#000000;stroke-width:0.5;stroke-miterlimit:10;" points="92.6,57.4 100.7,52.1 100.7,62.7
		92.6,57.4 	"/>
		<polygon style="fill:#999999;stroke:#000000;stroke-width:0.5;stroke-miterlimit:10;" points="92.7,57.4 84.6,62.7 84.6,52.1
		92.7,57.4 	"/>
		<g>
			<path style="fill:none;stroke:#0000FF;stroke-width:2;stroke-miterlimit:10;" d="M79.3,65.5V36.5c0-1.4,1.2-2.6,2.6-2.6h21.6
			c1.4,0,2.6,1.2,2.6,2.6v28.9c0,1.4-1.2,2.6-2.6,2.6H81.9C80.4,68,79.3,66.9,79.3,65.5z"/>
		</g>
		<circle style="fill:none;stroke:#000000;stroke-miterlimit:10;" cx="92.6" cy="46" r="6.3"/>
		<circle style="fill:none;stroke:#000000;stroke-width:0.25;stroke-miterlimit:10;" cx="92.7" cy="46" r="4.7"/>
		<text transform="matrix(1 0 0 1 90.0775 47.6302)" style="font-family:'MyriadPro-Regular'; font-size:6px;">М</text>
		<line style="fill:none;stroke:#000000;stroke-width:0.5;stroke-miterlimit:10;" x1="92.6" y1="57.4" x2="92.6" y2="52.3"/>
	</g>
	<text transform="matrix(1 0 0 1 79.1874 29.7244)" style="font-family:'MyriadPro-Regular'; font-size:10.2182px;">РК1</text>
	<line style="fill:none;stroke:#000000;stroke-miterlimit:10;" x1="79.2" y1="57.4" x2="38" y2="57.4"/>

	<use href='#emergencyIcon' transform="translate(415, 64)" />


	<polygon style="fill:#FF0000;stroke:#FF0000;stroke-width:0.5;stroke-miterlimit:10;" points="413.5,57.8 402.4,63.2 402.4,52.4
	413.5,57.8 "/>
	<polygon style="fill:#F15A24;stroke:#F15A24;stroke-width:0.5;stroke-miterlimit:10;" points="402.4,95.6 413.5,90.2 413.5,101
	402.4,95.6 "/>
	<text transform="matrix(1 0 0 1 402.4151 75.395)" style="font-family:'MyriadPro-Regular'; font-size:10.2182px;">Т3</text>
	<polygon style="fill:#FF0000;stroke:#FF0000;stroke-width:0.5;stroke-miterlimit:10;" points="32.5,57.8 21.4,63.2 21.4,52.4
	32.5,57.8 "/>
	<text transform="matrix(1 0 0 1 21.3864 75.395)" style="font-family:'MyriadPro-Regular'; font-size:10.2182px;">Т1</text>
	<text transform="matrix(1 0 0 1 402.4142 115.0646)" style="font-family:'MyriadPro-Regular'; font-size:10.2182px;">Т4</text>
	<polygon style="fill:#0000FF;stroke:#0000FF;stroke-width:0.5;stroke-miterlimit:10;" points="402.4,136.5 413.5,131.1 413.5,141.9
	402.4,136.5 "/>
	<text transform="matrix(1 0 0 1 402.4142 155.9816)" style="font-family:'MyriadPro-Regular'; font-size:10.2182px;">В1</text>
	<polygon style="fill:#0000FF;stroke:#0000FF;stroke-width:0.5;stroke-miterlimit:10;" points="21.4,136.5 32.5,131.1 32.5,141.9
	21.4,136.5 "/>
	<text transform="matrix(1 0 0 1 21.3858 155.9816)" style="font-family:'MyriadPro-Regular'; font-size:10.2182px;">T2</text>
	<g data-section="tempOutHWS">
		<polygon style="fill:#FFFFFF;stroke:#000000;stroke-width:0.25;stroke-miterlimit:10;" points="388.8,85.2 350.8,85.2 350.7,85.2
		350.7,74 350.8,74 388.8,74 388.8,74 388.8,85.2 	"/>
		<text data-state="tempOutHWS" transform="matrix(1 0 0 1 356.8676 82.7244)" style="font-family:'MyriadPro-Regular'; font-size:10.2182px;">56,8ºC</text>
		<line style="fill:none;stroke:#000000;stroke-miterlimit:10;" x1="369.8" y1="95.4" x2="369.8" y2="85.2"/>
		<text transform="matrix(1 0 0 1 357.3446 72.0084)" style="font-family:'MyriadPro-Regular'; font-size:10.2182px;">TE22</text>
	</g>
	<g data-section="pressOutNet">
		<polygon style="fill:#FFFFFF;stroke:#FF0000;stroke-width:0.75;stroke-miterlimit:10;" points="347.2,85.2 309.2,85.2 309.2,85.2
		309.2,74 309.2,74 347.2,74 347.3,74 347.3,85.2 	"/>
		<text data-state="pressOutNet" transform="matrix(1 0 0 1 312.3297 82.7246)" style="font-family:'MyriadPro-Regular'; font-size:10.2182px;">4,3 бар</text>
		<line style="fill:none;stroke:#000000;stroke-miterlimit:10;" x1="326.7" y1="95.5" x2="326.7" y2="85.1"/>
		<text transform="matrix(1 0 0 1 320.3517 72.0087)" style="font-family:'MyriadPro-Regular'; font-size:10.2182px;">PE22</text>
	</g>
	<circle style="stroke:#000000;stroke-miterlimit:10;" cx="326.7" cy="95.4" r="1.3"/>
	<g>
		<polygon style="fill:#FFFFFF;stroke:#000000;stroke-width:0.25;stroke-miterlimit:10;" points="231,85.6 192.9,85.6 192.9,85.6
		192.9,74.4 192.9,74.4 231,74.4 231,74.4 231,85.6 	"/>
		<text data-state="pressOutAfterPump" transform="matrix(1 0 0 1 196.1082 83.1293)" style="font-family:'MyriadPro-Regular'; font-size:10.2182px;">4,6 бар</text>
		<line style="fill:none;stroke:#000000;stroke-miterlimit:10;" x1="210.5" y1="95.9" x2="210.5" y2="85.5"/>
		<text transform="matrix(1 0 0 1 204.1302 72.4135)" style="font-family:'MyriadPro-Regular'; font-size:10.2182px;">PE3</text>
	</g>
	<circle style="stroke:#000000;stroke-miterlimit:10;" cx="210.5" cy="95.8" r="1.3"/>
	<circle style="stroke:#000000;stroke-miterlimit:10;" cx="369.8" cy="95.4" r="1.3"/>
	<g data-section="tempInHWS">
		<polygon style="fill:#FFFFFF;stroke:#000000;stroke-width:0.25;stroke-miterlimit:10;" points="388.8,47.1 350.8,47.1 350.7,47.1
		350.7,36 350.8,36 388.8,36 388.8,36 388.8,47.1 	"/>
		<text data-state="tempInHWS" transform="matrix(1 0 0 1 356.8676 44.6722)" style="font-family:'MyriadPro-Regular'; font-size:10.2182px;">64,9ºC</text>
		<line style="fill:none;stroke:#000000;stroke-miterlimit:10;" x1="369.8" y1="57.4" x2="369.8" y2="47.1"/>
		<text transform="matrix(1 0 0 1 357.3446 33.9562)" style="font-family:'MyriadPro-Regular'; font-size:10.2182px;">TE12</text>
	</g>
	<g data-section="pressInHWS">
		<polygon style="fill:#FFFFFF;stroke:#FF0000;stroke-width:0.75;stroke-miterlimit:10;" points="347.2,47.1 309.2,47.1 309.2,47.1
		309.2,36 309.2,36 347.2,36 347.3,36 347.3,47.1 	"/>
		<text data-state="pressInHWS" transform="matrix(1 0 0 1 312.3297 44.6724)" style="font-family:'MyriadPro-Regular'; font-size:10.2182px;">4,6 бар</text>
		<line style="fill:none;stroke:#000000;stroke-miterlimit:10;" x1="326.7" y1="57.4" x2="326.7" y2="47"/>
		<text transform="matrix(1 0 0 1 320.3517 33.9566)" style="font-family:'MyriadPro-Regular'; font-size:10.2182px;">PE12</text>
	</g>
	<circle style="stroke:#000000;stroke-miterlimit:10;" cx="326.7" cy="57.4" r="1.3"/>
	<circle style="stroke:#000000;stroke-miterlimit:10;" cx="369.8" cy="57.4" r="1.3"/>
	<g>
		<polygon style="fill:#FFFFFF;stroke:#000000;stroke-width:0.25;stroke-miterlimit:10;" points="109.5,126.1 71.4,126.1 71.4,126
		71.4,114.9 71.4,114.9 109.5,114.9 109.5,114.9 109.5,126 	"/>
		<text data-state="tempOutNet" transform="matrix(1 0 0 1 77.5 123.6131)" style="font-family:'MyriadPro-Regular'; font-size:10.2182px;">47,1ºC</text>
		<line style="fill:none;stroke:#000000;stroke-miterlimit:10;" x1="90.4" y1="136.3" x2="90.4" y2="126.1"/>
		<text transform="matrix(1 0 0 1 77.9771 112.897)" style="font-family:'MyriadPro-Regular'; font-size:10.2182px;">TE2</text>
	</g>
	<circle style="stroke:#000000;stroke-miterlimit:10;" cx="90.4" cy="136.3" r="1.3"/>
	<line style="fill:none;stroke:#000000;stroke-miterlimit:10;" x1="396.3" y1="136.3" x2="188.4" y2="136.3"/>
	<g>
		<polygon style="fill:#FFFFFF;stroke:#000000;stroke-width:0.25;stroke-miterlimit:10;" points="367.9,126 329.8,126 329.8,126
		329.8,114.9 329.8,114.9 367.9,114.9 367.9,114.9 367.9,126 	"/>
		<text data-state="pressInCW" transform="matrix(1 0 0 1 332.9416 123.5696)" style="font-family:'MyriadPro-Regular'; font-size:10.2182px;">4,8 бар</text>
		<line style="fill:none;stroke:#000000;stroke-miterlimit:10;" x1="347.3" y1="136.3" x2="347.3" y2="125.9"/>
		<text transform="matrix(1 0 0 1 340.9636 112.8538)" style="font-family:'MyriadPro-Regular'; font-size:10.2182px;">PE23</text>
	</g>
	<circle style="stroke:#000000;stroke-miterlimit:10;" cx="347.3" cy="136.3" r="1.3"/>

	<g>
		<path style="fill:#CCCCCC;stroke:#000000;stroke-width:0.25;stroke-miterlimit:10;" d="M273.3,44.8h-65.5c-3.1,0-5.7-2.5-5.7-5.7
	V20.4c0-3.1,2.5-5.7,5.7-5.7h65.5c3.1,0,5.7,2.5,5.7,5.7v18.7C279,42.2,276.4,44.8,273.3,44.8z"/>
		<text transform="matrix(1 0 0 1 229.2842 26.8054)" style="font-family:'MyriadPro-Regular'; font-size:10px;">Т н.в.</text>
		<text data-state='tempOutAir' transform="matrix(1 0 0 1 226.1242 39.395)" style="font-family:'MyriadPro-Regular'; font-size:10px;"> 18 ºC</text>\
	</g>



	<path style="fill:none;stroke:#666666;stroke-width:0.5;stroke-miterlimit:10;" d="M400.7,270.2H15.5c-5.2,0-9.4-4.2-9.4-9.4v-66.5
	c0-5.2,4.2-9.4,9.4-9.4h385.2c5.2,0,9.4,4.2,9.4,9.4v66.5C410.2,266,406,270.2,400.7,270.2z"/>
	<text transform="matrix(1 0 0 1 142.8844 200.1409)" style="font-family:'MyriadPro-Regular'; font-size:12px;">Контролируемые параметры</text>
	<line style="fill:none;stroke:#000000;stroke-miterlimit:10;" x1="127.6" y1="57.4" x2="105.9" y2="57.5"/>
	<line style="fill:none;stroke:#000000;stroke-miterlimit:10;" x1="127.6" y1="95.5" x2="38" y2="95.5"/>
	<polygon style="fill:#F15A24;stroke:#F15A24;stroke-width:0.5;stroke-miterlimit:10;" points="32.5,95.9 21.4,101.3 21.4,90.5
	32.5,95.9 "/>
	<text transform="matrix(1 0 0 1 21.3864 113.5137)" style="font-family:'MyriadPro-Regular'; font-size:10.2182px;">Т21</text>
	<line style="fill:none;stroke:#000000;stroke-miterlimit:10;" x1="170.8" y1="95.7" x2="188.4" y2="95.7"/>
	<line style="fill:none;stroke:#000000;stroke-miterlimit:10;" x1="170.8" y1="136.3" x2="188.4" y2="136.3"/>
	<line style="fill:none;stroke:#000000;stroke-miterlimit:10;" x1="170.8" y1="57.4" x2="188.4" y2="57.4"/>
	<line style="fill:none;stroke:#000000;stroke-miterlimit:10;" x1="127.6" y1="57.4" x2="145.1" y2="57.4"/>
	<line style="fill:none;stroke:#000000;stroke-miterlimit:10;" x1="127.6" y1="95.5" x2="145.1" y2="95.5"/>
	<line style="fill:none;stroke:#000000;stroke-miterlimit:10;" x1="127.6" y1="136.4" x2="38" y2="136.4"/>
	<line style="fill:none;stroke:#000000;stroke-miterlimit:10;" x1="127.6" y1="136.3" x2="145.1" y2="136.4"/>
	<text transform="matrix(1 0 0 1 280.604 75.7821)" style="font-family:'MyriadPro-Regular'; font-size:10.2182px;">Ф1</text>
	<g>
		<g>
			<linearGradient id="SVGID_1_" gradientUnits="userSpaceOnUse" x1="170.8204" y1="131.168" x2="170.8204" y2="100.768">
				<stop offset="0" style="stop-color:#0000FF"/>
				<stop offset="1" style="stop-color:#F7931E"/>
			</linearGradient>
			<line style="fill:none;stroke:url(#SVGID_1_);stroke-miterlimit:10;" x1="170.8" y1="131.2" x2="170.8" y2="104.3"/>
			<g>

				<linearGradient id="SVGID_00000003073593200209291440000005478639112698296251_" gradientUnits="userSpaceOnUse" x1="170.8204" y1="131.168" x2="170.8204" y2="100.768">
					<stop offset="0" style="stop-color:#0000FF"/>
					<stop offset="1" style="stop-color:#F7931E"/>
				</linearGradient>
				<polygon style="fill:url(#SVGID_00000003073593200209291440000005478639112698296251_);" points="173,106 170.8,105.1 168.6,106
				170.8,100.8 			"/>
			</g>
		</g>
	</g>
	<g>
		<g>

			<linearGradient id="SVGID_00000181073140609169645330000010301978756640400007_" gradientUnits="userSpaceOnUse" x1="170.8204" y1="90.595" x2="170.8204" y2="62.5134">
				<stop offset="0" style="stop-color:#F7931E"/>
				<stop offset="1" style="stop-color:#ED1C24"/>
			</linearGradient>

			<line style="fill:none;stroke:url(#SVGID_00000181073140609169645330000010301978756640400007_);stroke-miterlimit:10;" x1="170.8" y1="90.6" x2="170.8" y2="66.1"/>
			<g>

				<linearGradient id="SVGID_00000121964551502218526500000015389201277508309181_" gradientUnits="userSpaceOnUse" x1="170.8204" y1="90.595" x2="170.8204" y2="62.5134">
					<stop offset="0" style="stop-color:#F7931E"/>
					<stop offset="1" style="stop-color:#ED1C24"/>
				</linearGradient>
				<polygon style="fill:url(#SVGID_00000121964551502218526500000015389201277508309181_);" points="173,67.8 170.8,66.8
				168.6,67.8 170.8,62.5 			"/>
			</g>
		</g>
	</g>
	<g>
		<g>

			<linearGradient id="SVGID_00000156560013947252714660000017123490611103133109_" gradientUnits="userSpaceOnUse" x1="144.9561" y1="131.168" x2="144.9561" y2="100.768">
				<stop offset="0" style="stop-color:#0000FF"/>
				<stop offset="1" style="stop-color:#F7931E"/>
			</linearGradient>

			<line style="fill:none;stroke:url(#SVGID_00000156560013947252714660000017123490611103133109_);stroke-miterlimit:10;" x1="145" y1="127.6" x2="145" y2="100.8"/>
			<g>

				<linearGradient id="SVGID_00000032633094524620902720000003798605269548292240_" gradientUnits="userSpaceOnUse" x1="144.9561" y1="131.168" x2="144.9561" y2="100.768">
					<stop offset="0" style="stop-color:#0000FF"/>
					<stop offset="1" style="stop-color:#F7931E"/>
				</linearGradient>
				<polygon style="fill:url(#SVGID_00000032633094524620902720000003798605269548292240_);" points="147.2,125.9 145,126.8
				142.7,125.9 145,131.2 			"/>
			</g>
		</g>
	</g>
	<g>
		<g>

			<linearGradient id="SVGID_00000054972982834480912260000012269013910876262571_" gradientUnits="userSpaceOnUse" x1="144.9561" y1="90.595" x2="144.9561" y2="62.5134">
				<stop offset="0" style="stop-color:#F7931E"/>
				<stop offset="1" style="stop-color:#ED1C24"/>
			</linearGradient>

			<line style="fill:none;stroke:url(#SVGID_00000054972982834480912260000012269013910876262571_);stroke-miterlimit:10;" x1="145" y1="87" x2="145" y2="62.5"/>
			<g>

				<linearGradient id="SVGID_00000141431930762282495340000017439940193165611915_" gradientUnits="userSpaceOnUse" x1="144.9561" y1="90.595" x2="144.9561" y2="62.5134">
					<stop offset="0" style="stop-color:#F7931E"/>
					<stop offset="1" style="stop-color:#ED1C24"/>
				</linearGradient>
				<polygon style="fill:url(#SVGID_00000141431930762282495340000017439940193165611915_);" points="147.2,85.3 145,86.3
				142.7,85.3 145,90.6 			"/>
			</g>
		</g>
	</g>
	<path style="fill:none;stroke:#0000FF;stroke-miterlimit:10;" d="M185.7,147.1h-55.4c-1.5,0-2.7-1.2-2.7-2.7v-94
		c0-1.5,1.2-2.7,2.7-2.7h55.4c1.5,0,2.7,1.2,2.7,2.7v94C188.4,145.9,187.2,147.1,185.7,147.1z"/>

	<g data-section="deltaPressTOA">
		<path data-state="deltaPressTOA" data-state-eval="if(state.deltaPressTOA > state.limDeltaPressTOA) {element.style.stroke='red'; element.style.strokeWidth=1;}" style="fill:#CCCCCC;stroke:#000000;stroke-width:0.25;stroke-miterlimit:10;" d="M62.4,261.7h-43c-3.1,0-5.7-2.5-5.7-5.7
	v-35.3c0-3.1,2.5-5.7,5.7-5.7h43c3.1,0,5.7,2.5,5.7,5.7V256C68,259.1,65.5,261.7,62.4,261.7z"/>
		<text transform="matrix(0.9625 0 0 1 23.1781 227.1754)" style="font-family:'MyriadPro-Regular'; font-size:10px;">ΔP (ТОА)</text>
		<text data-state="deltaPressTOA" transform="matrix(1 0 0 1 25.3061 241.1879)" style="font-family:'MyriadPro-Regular'; font-size:12px;">1,68 м</text>
		<text transform="matrix(1 0 0 1 25.5244 253.9454)" style="font-family:'MyriadPro-Regular'; font-size:7px;">(</text>
		<text transform="matrix(0.9625 0 0 1 27.7964 253.9454)" style="font-family:'MyriadPro-Regular'; font-size:7px;">ΔP</text>
		<text transform="matrix(1 0 0 1 38.2988 253.9454)" style="font-family:'MyriadPro-Regular'; font-size:7px;">≤</text>
		<text data-state="limDeltaPressTOA" transform="matrix(1 0 0 1 44.2988 253.9454)" style="font-family:'MyriadPro-Regular'; font-size:7px;"></text>
		<text transform="matrix(1 0 0 1 54 253.9454)" style="font-family:'MyriadPro-Regular'; font-size:7px;">)</text>
	</g>

	<g data-section="deltaPressPump">
		<path data-state="deltaPressPump" data-state-eval="if(state.deltaPressPump > state.limHighDeltaPressPump || state.deltaPressPump &lt; state.limLowDeltaPressPump) {element.style.stroke = 'red'; element.style.strokeWidth = 1;}" style="fill:#CCCCCC;stroke:#000000;stroke-width:0.25;stroke-miterlimit:10;" d="M125.6,261.7h-43c-3.1,0-5.7-2.5-5.7-5.7
	v-35.3c0-3.1,2.5-5.7,5.7-5.7h43c3.1,0,5.7,2.5,5.7,5.7V256C131.3,259.1,128.8,261.7,125.6,261.7z"/>
		<text transform="matrix(0.9625 0 0 1 83.8886 227.1754)" style="font-family:'MyriadPro-Regular'; font-size:10px;">ΔP (ЦНГВ)</text>
		<text data-state="deltaPressPump" transform="matrix(1 0 0 1 88.5717 241.1879)" style="font-family:'MyriadPro-Regular'; font-size:12px;">3,12 м</text>
		<text transform="matrix(1 0 0 1 80 253.9454)" style="font-family:'MyriadPro-Regular'; font-size:7px;">(</text>
		<text data-state="limLowDeltaPressPump" transform="matrix(1 0 0 1 82 253.9454)" style="font-family:'MyriadPro-Regular'; font-size:7px;"></text>
		<text transform="matrix(1 0 0 1 95 253.9454)" style="font-family:'MyriadPro-Regular'; font-size:7px;">≤</text>
		<text transform="matrix(0.9625 0 0 1 101 253.9454)" style="font-family:'MyriadPro-Regular'; font-size:7px;">ΔP</text>
		<text transform="matrix(1 0 0 1 112 253.9454)" style="font-family:'MyriadPro-Regular'; font-size:7px;">≤</text>
		<text data-state="limHighDeltaPressPump" transform="matrix(1 0 0 1 117 253.9454)" style="font-family:'MyriadPro-Regular'; font-size:7px;"></text>
		<text transform="matrix(1 0 0 1 126 253.9454)" style="font-family:'MyriadPro-Regular'; font-size:7px;">)</text>
	</g>

	<g data-section="deltaPressHWS">
		<path data-state="deltaPressHWS" data-state-eval="if(state.deltaPressHWS > state.limHighDeltaPressHWS) {element.style.stroke='red'; element.style.strokeWidth=1;}" style="fill:#CCCCCC;stroke:#000000;stroke-width:0.25;stroke-miterlimit:10;" d="M188.1,261.7h-43c-3.1,0-5.7-2.5-5.7-5.7v-35.3
	c0-3.1,2.5-5.7,5.7-5.7h43c3.1,0,5.7,2.5,5.7,5.7V256C193.8,259.1,191.3,261.7,188.1,261.7z"/>
		<text transform="matrix(0.9625 0 0 1 149.9076 227.1754)" style="font-family:'MyriadPro-Regular'; font-size:10px;">ΔP (ГВС)</text>
		<text data-state="deltaPressHWS" transform="matrix(1 0 0 1 151.0681 241.1879)" style="font-family:'MyriadPro-Regular'; font-size:12px;">3,47 м</text>
		<text transform="matrix(1 0 0 1 151.2856 253.9454)" style="font-family:'MyriadPro-Regular'; font-size:7px;">(</text>
		<text transform="matrix(0.9625 0 0 1 153.5576 253.9454)" style="font-family:'MyriadPro-Regular'; font-size:7px;">ΔP </text>
		<text transform="matrix(1 0 0 1 164 253.9454)" style="font-family:'MyriadPro-Regular'; font-size:7px;">≤</text>
		<text transform="matrix(1 0 0 1 170 253.9454)" style="font-family:'MyriadPro-Regular'; font-size:7px;" data-state="limHighDeltaPressHWS">1</text>
		<text transform="matrix(1 0 0 1 179.5 253.9454)" style="font-family:'MyriadPro-Regular'; font-size:7px;">)</text>
	</g>

	<g data-section="tempInHWS">
		<path data-state="tempInHWS" data-state-eval="if(state.tempInHWS &lt; state.limLowTempInHWS || state.tempInHWS > state.limHighTempInHWS) {element.style.stroke = 'red'; element.style.strokeWidth = 1;}" style="fill:#CCCCCC;stroke:#000000;stroke-width:0.25;stroke-miterlimit:10;" d="M258.1,261.7h-50.4c-3.1,0-5.7-2.5-5.7-5.7
	v-35.3c0-3.1,2.5-5.7,5.7-5.7h50.4c3.1,0,5.7,2.5,5.7,5.7V256C263.7,259.1,261.2,261.7,258.1,261.7z"/>
		<text transform="matrix(0.9625 0 0 1 223.1699 227.1754)" style="font-family:'MyriadPro-Regular'; font-size:10px;">TE12</text>
		<text data-state="tempInHWS" transform="matrix(1 0 0 1 216.7767 241.1879)" style="font-family:'MyriadPro-Regular'; font-size:12px;">64,9ºC</text>

		<text transform="matrix(1 0 0 1 204 253.9454)" style="font-family:'MyriadPro-Regular'; font-size:7px;">(</text>
		<text data-state="limLowTempInHWS" transform="matrix(1 0 0 1 206 253.9454)" style="font-family:'MyriadPro-Regular'; font-size:7px;"></text>
		<text transform="matrix(1 0 0 1 224.7071 253.9454)" style="font-family:'MyriadPro-Regular'; font-size:7px;">≤</text>
		<text transform="matrix(0.9625 0 0 1 230 253.9454)" style="font-family:'MyriadPro-Regular'; font-size:7px;">TE</text>
		<text transform="matrix(1 0 0 1 240 253.9454)" style="font-family:'MyriadPro-Regular'; font-size:7px;">≤</text>
		<text data-state="limHighTempInHWS" transform="matrix(1 0 0 1 245 253.9454)" style="font-family:'MyriadPro-Regular'; font-size:7px;"></text>
		<text transform="matrix(1 0 0 1 261 253.9454)" style="font-family:'MyriadPro-Regular'; font-size:7px;">)</text>
	</g>

	<g data-section="tempOutHWS">
		<path data-state="tempOutHWS" data-state-eval="if(state.tempOutHWS &lt;= state.limLowTempOutHWS) {element.style.stroke='red'; element.style.strokeWidth=1;}" style="fill:#CCCCCC;stroke:#000000;stroke-width:0.25;stroke-miterlimit:10;" d="M328,261.7h-50.4c-3.1,0-5.7-2.5-5.7-5.7
	v-35.3c0-3.1,2.5-5.7,5.7-5.7H328c3.1,0,5.7,2.5,5.7,5.7V256C333.7,259.1,331.1,261.7,328,261.7z"/>
		<text transform="matrix(0.9625 0 0 1 293.0992 227.1754)" style="font-family:'MyriadPro-Regular'; font-size:10px;">TE22</text>
		<text data-state="tempOutHWS" transform="matrix(1 0 0 1 286.706 241.1879)" style="font-family:'MyriadPro-Regular'; font-size:12px;">56,8ºC</text>
		<text transform="matrix(1 0 0 1 284.82 253.9454)" style="font-family:'MyriadPro-Regular'; font-size:7px;">(</text>
		<text transform="matrix(0.9625 0 0 1 288.0919 253.9454)" style="font-family:'MyriadPro-Regular'; font-size:7px;">TE</text>
		<text transform="matrix(1 0 0 1 300.339 253.9454)" style="font-family:'MyriadPro-Regular'; font-size:7px;">≥</text>
		<text data-state="limLowTempOutHWS" transform="matrix(1 0 0 1 306.339 253.9454)" style="font-family:'MyriadPro-Regular'; font-size:7px;"></text>
		<text transform="matrix(1 0 0 1 323 253.9454)" style="font-family:'MyriadPro-Regular'; font-size:7px;">)</text>

	</g>
	<g data-section="tempOutNet">
		<path data-state="tempOutNet" data-state-eval="if(state.tempOutNet > state.limHighTempOutNet) {element.style.stroke = 'red'; element.style.strokeWidth = 1;}" style="fill:#CCCCCC;stroke:#000000;stroke-width:0.25;stroke-miterlimit:10;" d="M397.4,261.7H347c-3.1,0-5.7-2.5-5.7-5.7
	v-35.3c0-3.1,2.5-5.7,5.7-5.7h50.4c3.1,0,5.7,2.5,5.7,5.7V256C403.1,259.1,400.6,261.7,397.4,261.7z"/>
		<text transform="matrix(0.9625 0 0 1 362.5383 227.1754)" style="font-family:'MyriadPro-Regular'; font-size:10px;">TE2</text>
		<text data-state="tempOutNet" transform="matrix(1 0 0 1 356.145 241.1879)" style="font-family:'MyriadPro-Regular'; font-size:12px;">47,1ºC</text>
		<text transform="matrix(1 0 0 1 353 253.9454)" style="font-family:'MyriadPro-Regular'; font-size:7px;">(</text>
		<text transform="matrix(0.9625 0 0 1 356 253.9454)" style="font-family:'MyriadPro-Regular'; font-size:7px;">TE</text>
		<text transform="matrix(1 0 0 1 367 253.9454)" style="font-family:'MyriadPro-Regular'; font-size:7px;">≤</text>
		<text data-state="limHighTempOutNet" transform="matrix(1 0 0 1 373 253.9454)" style="font-family:'MyriadPro-Regular'; font-size:7px;"></text>
		<text transform="matrix(1 0 0 1 389 253.9454)" style="font-family:'MyriadPro-Regular'; font-size:7px;">)</text>
	</g>
</svg>
